<?xml version="1.0" encoding="UTF-8" standalone="no"?>
<svg width="1306.0px" height="1025.0px" version="1.1" xmlns="http://www.w3.org/2000/svg" xmlns:xlink="http://www.w3.org/1999/xlink">
<g>
<rect x="0.0px" y="0.0px" width="1306.0px" height="1025.0px" rx="0.0px" ry="0.0px" style="fill:rgb(255,255,255);"/>
<rect x="40.0px" y="323.0px" width="1228.0px" height="416.0px" rx="0.0px" ry="0.0px" style="fill:none; stroke:rgb(219,219,219); stroke-width:3.0px;"/>
<line x1="78.0px" y1="323.0px" x2="78.0px" y2="739.0px" style="stroke:rgb(219,219,219); stroke-width:3.0px;"/>
<rect x="40.0px" y="322.0px" width="1228.0px" height="416.0px" rx="0.0px" ry="0.0px" style="fill:none; stroke:rgb(219,219,219); stroke-width:3.0px;"/>
<line x1="78.0px" y1="322.0px" x2="78.0px" y2="738.0px" style="stroke:rgb(219,219,219); stroke-width:3.0px;"/>
<rect x="39.0px" y="322.0px" width="1228.0px" height="416.0px" rx="0.0px" ry="0.0px" style="fill:none; stroke:rgb(169,169,169); stroke-width:3.0px;"/>
<line x1="77.0px" y1="322.0px" x2="77.0px" y2="738.0px" style="stroke:rgb(169,169,169); stroke-width:3.0px;"/>
<rect x="39.0px" y="321.0px" width="1228.0px" height="416.0px" rx="0.0px" ry="0.0px" style="fill:none; stroke:rgb(169,169,169); stroke-width:3.0px;"/>
<line x1="77.0px" y1="321.0px" x2="77.0px" y2="737.0px" style="stroke:rgb(169,169,169); stroke-width:3.0px;"/>
<rect x="38.0px" y="321.0px" width="1228.0px" height="416.0px" rx="0.0px" ry="0.0px" style="fill:rgb(255,255,255); stroke:rgb(153,153,153); stroke-width:3.0px;"/>
<line x1="76.0px" y1="321.0px" x2="76.0px" y2="737.0px" style="stroke:rgb(153,153,153); stroke-width:3.0px;"/>
<text transform="translate(47.0,585.0), rotate(-90.0)" x="0px" y="0px" textLength="113.0px"
 style="font-family:Arial; font-size:15.0px; font-weight:bold;fill:rgb(0,0,0); stroke:none; baseline-shift:-14.0px; ">
   Web Application
</text>
<rect x="40.0px" y="59.0px" width="1153.0px" height="151.0px" rx="0.0px" ry="0.0px" style="fill:none; stroke:rgb(219,219,219); stroke-width:3.0px;"/>
<line x1="78.0px" y1="59.0px" x2="78.0px" y2="210.0px" style="stroke:rgb(219,219,219); stroke-width:3.0px;"/>
<line x1="78.0px" y1="59.0px" x2="1193.0px" y2="210.0px" style="stroke:rgb(219,219,219); stroke-width:3.0px;"/>
<line x1="78.0px" y1="210.0px" x2="1193.0px" y2="59.0px" style="stroke:rgb(219,219,219); stroke-width:3.0px;"/>
<rect x="40.0px" y="58.0px" width="1153.0px" height="151.0px" rx="0.0px" ry="0.0px" style="fill:none; stroke:rgb(219,219,219); stroke-width:3.0px;"/>
<line x1="78.0px" y1="58.0px" x2="78.0px" y2="209.0px" style="stroke:rgb(219,219,219); stroke-width:3.0px;"/>
<line x1="78.0px" y1="58.0px" x2="1193.0px" y2="209.0px" style="stroke:rgb(219,219,219); stroke-width:3.0px;"/>
<line x1="78.0px" y1="209.0px" x2="1193.0px" y2="58.0px" style="stroke:rgb(219,219,219); stroke-width:3.0px;"/>
<rect x="39.0px" y="58.0px" width="1153.0px" height="151.0px" rx="0.0px" ry="0.0px" style="fill:none; stroke:rgb(169,169,169); stroke-width:3.0px;"/>
<line x1="77.0px" y1="58.0px" x2="77.0px" y2="209.0px" style="stroke:rgb(169,169,169); stroke-width:3.0px;"/>
<line x1="77.0px" y1="58.0px" x2="1192.0px" y2="209.0px" style="stroke:rgb(169,169,169); stroke-width:3.0px;"/>
<line x1="77.0px" y1="209.0px" x2="1192.0px" y2="58.0px" style="stroke:rgb(169,169,169); stroke-width:3.0px;"/>
<rect x="39.0px" y="57.0px" width="1153.0px" height="151.0px" rx="0.0px" ry="0.0px" style="fill:none; stroke:rgb(169,169,169); stroke-width:3.0px;"/>
<line x1="77.0px" y1="57.0px" x2="77.0px" y2="208.0px" style="stroke:rgb(169,169,169); stroke-width:3.0px;"/>
<line x1="77.0px" y1="57.0px" x2="1192.0px" y2="208.0px" style="stroke:rgb(169,169,169); stroke-width:3.0px;"/>
<line x1="77.0px" y1="208.0px" x2="1192.0px" y2="57.0px" style="stroke:rgb(169,169,169); stroke-width:3.0px;"/>
<rect x="38.0px" y="57.0px" width="1153.0px" height="151.0px" rx="0.0px" ry="0.0px" style="fill:rgb(255,255,255); stroke:rgb(153,153,153); stroke-width:3.0px;"/>
<line x1="76.0px" y1="57.0px" x2="76.0px" y2="208.0px" style="stroke:rgb(153,153,153); stroke-width:3.0px;"/>
<line x1="76.0px" y1="57.0px" x2="1191.0px" y2="208.0px" style="stroke:rgb(153,153,153); stroke-width:3.0px;"/>
<line x1="76.0px" y1="208.0px" x2="1191.0px" y2="57.0px" style="stroke:rgb(153,153,153); stroke-width:3.0px;"/>
<text transform="translate(47.0,159.0), rotate(-90.0)" x="0px" y="0px" textLength="53.0px"
 style="font-family:Arial; font-size:15.0px; font-weight:bold;fill:rgb(0,0,0); stroke:none; baseline-shift:-14.0px; ">
   ACTOR
</text>
<clipPath id="AdoSvgClip4">
</clipPath>
<g clip-path="url(#AdoSvgClip4)">
<text transform="translate(623.0,8.0), rotate(-0.0)" x="0px" y="0px" textLength="57.0px"
 style="font-family:Arial; font-size:22.0px; font-weight:bold;fill:rgb(0,68,170); stroke:none; baseline-shift:-21.0px; ">
   Login
</text>
<text transform="translate(12.0,1002.0), rotate(-0.0)" x="0px" y="0px" textLength="194.0px"
 style="font-family:Arial; font-size:15.0px; fill:rgb(0,68,170); stroke:none; baseline-shift:-14.0px; ">
   © 18.06.2019, 17:57:32 Guest
</text>
</g>
<rect x="382.0px" y="406.0px" width="106.0px" height="57.0px" rx="0.0px" ry="0.0px" style="fill:none; stroke:none; stroke-width:0.0px;"/>
<clipPath id="AdoSvgClip10">
<rect x="371.0px" y="401.0px" width="128.0px" height="69.0px" rx="8.0px" ry="8.0px" style="fill:none;"/>
</clipPath>
<g clip-path="url(#AdoSvgClip10)">
<linearGradient id="AdoSvgGradient0" x1="0%" y1="0%" x2="100%" y2="100%"><stop offset="5%" stop-color="rgb(255,255,255)"/><stop offset="95%" stop-color="rgb(143,194,255)"/></linearGradient>
<rect x="371.0px" y="401.0px" width="127.0px" height="68.0px" style="fill:url(#AdoSvgGradient0);"/>
</g>
<rect x="371.0px" y="401.0px" width="127.0px" height="68.0px" rx="8.0px" ry="8.0px" style="fill:none; stroke:rgb(0,68,170); stroke-width:2.0px;"/>
<text transform="translate(385.0,429.0), rotate(-0.0)" x="0px" y="0px" textLength="100.0px"
 style="font-family:Arial; font-size:13.0px; fill:rgb(0,0,0); stroke:none; baseline-shift:-13.0px; ">
   Check Input-Data
</text>
<clipPath id="AdoSvgClip15">
<ellipse cx="189.0px" cy="435.0px" rx="26.5px" ry="26.5px" style="fill:none;"/>
</clipPath>
<g clip-path="url(#AdoSvgClip15)">
<linearGradient id="AdoSvgGradient1" x1="0%" y1="0%" x2="100%" y2="100%"><stop offset="5%" stop-color="rgb(255,255,255)"/><stop offset="95%" stop-color="rgb(0,128,0)"/></linearGradient>
<rect x="155.0px" y="408.0px" width="106.0px" height="53.0px" style="fill:url(#AdoSvgGradient1);"/>
</g>
<ellipse cx="189.5px" cy="435.5px" rx="26.0px" ry="26.0px" style="fill:none; stroke:rgb(0,0,0); stroke-width:1.0px;"/>
<rect x="174.5px" y="423.5px" width="30.0px" height="23.0px" rx="0.0px" ry="0.0px" style="fill:rgb(255,255,255); stroke:rgb(0,0,0); stroke-width:1.0px;"/>
<polyline points=" 174.0,423.0 189.0,435.0 204.0,423.0 " style="fill:none; stroke:rgb(0,0,0); stroke-width:1.0px;"/>
<polygon points=" 251.0,595.0 206.0,595.0 206.0,542.0 236.0,542.0 251.0,558.0 " style="fill:none; stroke:rgb(219,219,219); stroke-width:2.0px;"/>
<polyline points=" 236.0,542.0 236.0,558.0 251.0,558.0 " style="fill:none; stroke:rgb(219,219,219); stroke-width:2.0px;"/>
<polygon points=" 210.0,554.0 217.0,554.0 217.0,550.0 229.0,558.0 217.0,565.0 217.0,561.0 210.0,561.0 " style="fill:none; stroke:rgb(219,219,219); stroke-width:2.0px;"/>
<polygon points=" 251.0,594.0 206.0,594.0 206.0,541.0 236.0,541.0 251.0,557.0 " style="fill:none; stroke:rgb(219,219,219); stroke-width:2.0px;"/>
<polyline points=" 236.0,541.0 236.0,557.0 251.0,557.0 " style="fill:none; stroke:rgb(219,219,219); stroke-width:2.0px;"/>
<polygon points=" 210.0,553.0 217.0,553.0 217.0,549.0 229.0,557.0 217.0,564.0 217.0,560.0 210.0,560.0 " style="fill:none; stroke:rgb(219,219,219); stroke-width:2.0px;"/>
<polygon points=" 250.0,594.0 205.0,594.0 205.0,541.0 235.0,541.0 250.0,557.0 " style="fill:none; stroke:rgb(169,169,169); stroke-width:2.0px;"/>
<polyline points=" 235.0,541.0 235.0,557.0 250.0,557.0 " style="fill:none; stroke:rgb(169,169,169); stroke-width:2.0px;"/>
<polygon points=" 209.0,553.0 216.0,553.0 216.0,549.0 228.0,557.0 216.0,564.0 216.0,560.0 209.0,560.0 " style="fill:none; stroke:rgb(169,169,169); stroke-width:2.0px;"/>
<polygon points=" 250.0,593.0 205.0,593.0 205.0,540.0 235.0,540.0 250.0,556.0 " style="fill:none; stroke:rgb(169,169,169); stroke-width:2.0px;"/>
<polyline points=" 235.0,540.0 235.0,556.0 250.0,556.0 " style="fill:none; stroke:rgb(169,169,169); stroke-width:2.0px;"/>
<polygon points=" 209.0,552.0 216.0,552.0 216.0,548.0 228.0,556.0 216.0,563.0 216.0,559.0 209.0,559.0 " style="fill:none; stroke:rgb(169,169,169); stroke-width:2.0px;"/>
<clipPath id="AdoSvgClip20">
<polygon points=" 249.0,593.0 204.0,593.0 204.0,540.0 234.0,540.0 249.0,556.0 " style="fill:none;"/>
</clipPath>
<g clip-path="url(#AdoSvgClip20)">
<linearGradient id="AdoSvgGradient2" x1="0%" y1="0%" x2="100%" y2="100%"><stop offset="5%" stop-color="rgb(255,255,255)"/><stop offset="95%" stop-color="rgb(255,255,255)"/></linearGradient>
<rect x="193.0px" y="540.0px" width="106.0px" height="53.0px" style="fill:url(#AdoSvgGradient2);"/>
</g>
<polygon points=" 249.0,593.0 204.0,593.0 204.0,540.0 234.0,540.0 249.0,556.0 " style="fill:none; stroke:rgb(170,170,170); stroke-width:2.0px;"/>
<polyline points=" 234.0,540.0 234.0,556.0 249.0,556.0 " style="fill:none; stroke:rgb(170,170,170); stroke-width:2.0px;"/>
<polygon points=" 208.0,552.0 215.0,552.0 215.0,548.0 227.0,556.0 215.0,563.0 215.0,559.0 208.0,559.0 " style="fill:rgb(255,255,255); stroke:rgb(170,170,170); stroke-width:2.0px;"/>
<text transform="translate(196.0,605.0), rotate(-0.0)" x="0px" y="0px" textLength="62.0px"
 style="font-family:Arial; font-size:13.0px; fill:rgb(0,0,0); stroke:none; baseline-shift:-13.0px; ">
   Input-Form
</text>
<path d="M343.0,569.1 A37.5,15.0 0 1,0 418.0,569.1" style="fill:none; stroke:rgb(219,219,219); stroke-width:1.0px;"/>
<ellipse cx="380.5px" cy="533.5px" rx="37.5px" ry="11.0px" style="fill:none; stroke:rgb(219,219,219); stroke-width:1.0px;"/>
<path d="M342.6,541.6 A41.5,15.0 0 0,0 418.3,541.7" style="fill:none; stroke:rgb(219,219,219); stroke-width:1.0px;"/>
<path d="M342.4,548.4 A41.5,15.0 0 0,0 417.8,549.1" style="fill:none; stroke:rgb(219,219,219); stroke-width:1.0px;"/>
<line x1="342.0px" y1="533.0px" x2="342.0px" y2="569.0px" style="stroke:rgb(219,219,219); stroke-width:1.0px;"/>
<line x1="418.0px" y1="533.0px" x2="418.0px" y2="569.0px" style="stroke:rgb(219,219,219); stroke-width:1.0px;"/>
<path d="M343.0,568.1 A37.5,15.0 0 1,0 418.0,568.1" style="fill:none; stroke:rgb(219,219,219); stroke-width:1.0px;"/>
<ellipse cx="380.5px" cy="532.5px" rx="37.5px" ry="11.0px" style="fill:none; stroke:rgb(219,219,219); stroke-width:1.0px;"/>
<path d="M342.6,540.6 A41.5,15.0 0 0,0 418.3,540.7" style="fill:none; stroke:rgb(219,219,219); stroke-width:1.0px;"/>
<path d="M342.4,547.4 A41.5,15.0 0 0,0 417.8,548.1" style="fill:none; stroke:rgb(219,219,219); stroke-width:1.0px;"/>
<line x1="342.0px" y1="532.0px" x2="342.0px" y2="568.0px" style="stroke:rgb(219,219,219); stroke-width:1.0px;"/>
<line x1="418.0px" y1="532.0px" x2="418.0px" y2="568.0px" style="stroke:rgb(219,219,219); stroke-width:1.0px;"/>
<path d="M342.0,568.1 A37.5,15.0 0 1,0 417.0,568.1" style="fill:none; stroke:rgb(169,169,169); stroke-width:1.0px;"/>
<ellipse cx="379.5px" cy="532.5px" rx="37.5px" ry="11.0px" style="fill:none; stroke:rgb(169,169,169); stroke-width:1.0px;"/>
<path d="M341.6,540.6 A41.5,15.0 0 0,0 417.3,540.7" style="fill:none; stroke:rgb(169,169,169); stroke-width:1.0px;"/>
<path d="M341.4,547.4 A41.5,15.0 0 0,0 416.8,548.1" style="fill:none; stroke:rgb(169,169,169); stroke-width:1.0px;"/>
<line x1="341.0px" y1="532.0px" x2="341.0px" y2="568.0px" style="stroke:rgb(169,169,169); stroke-width:1.0px;"/>
<line x1="417.0px" y1="532.0px" x2="417.0px" y2="568.0px" style="stroke:rgb(169,169,169); stroke-width:1.0px;"/>
<path d="M342.0,567.1 A37.5,15.0 0 1,0 417.0,567.1" style="fill:none; stroke:rgb(169,169,169); stroke-width:1.0px;"/>
<ellipse cx="379.5px" cy="531.5px" rx="37.5px" ry="11.0px" style="fill:none; stroke:rgb(169,169,169); stroke-width:1.0px;"/>
<path d="M341.6,539.6 A41.5,15.0 0 0,0 417.3,539.7" style="fill:none; stroke:rgb(169,169,169); stroke-width:1.0px;"/>
<path d="M341.4,546.4 A41.5,15.0 0 0,0 416.8,547.1" style="fill:none; stroke:rgb(169,169,169); stroke-width:1.0px;"/>
<line x1="341.0px" y1="531.0px" x2="341.0px" y2="567.0px" style="stroke:rgb(169,169,169); stroke-width:1.0px;"/>
<line x1="417.0px" y1="531.0px" x2="417.0px" y2="567.0px" style="stroke:rgb(169,169,169); stroke-width:1.0px;"/>
<path d="M341.0,567.1 A37.5,15.0 0 1,0 416.0,567.1" style="fill:none; stroke:rgb(170,170,170); stroke-width:1.0px;"/>
<ellipse cx="378.5px" cy="531.5px" rx="37.5px" ry="11.0px" style="fill:rgb(255,255,255); stroke:rgb(170,170,170); stroke-width:1.0px;"/>
<path d="M340.6,539.6 A41.5,15.0 0 0,0 416.3,539.7" style="fill:none; stroke:rgb(170,170,170); stroke-width:1.0px;"/>
<path d="M340.4,546.4 A41.5,15.0 0 0,0 415.8,547.1" style="fill:none; stroke:rgb(170,170,170); stroke-width:1.0px;"/>
<line x1="340.0px" y1="531.0px" x2="340.0px" y2="567.0px" style="stroke:rgb(170,170,170); stroke-width:1.0px;"/>
<line x1="416.0px" y1="531.0px" x2="416.0px" y2="567.0px" style="stroke:rgb(170,170,170); stroke-width:1.0px;"/>
<text transform="translate(350.0,586.0), rotate(-0.0)" x="0px" y="0px" textLength="57.0px"
 style="font-family:Arial; font-size:13.0px; fill:rgb(0,0,0); stroke:none; baseline-shift:-13.0px; ">
   DataBase
</text>
<path d="M 396.0 512.0 L 415.0 474.0" style="fill:none; stroke:rgb(0,0,0); stroke-dasharray:6 4; stroke-width:2.0px;"/>
<ellipse cx="396.5px" cy="512.5px" rx="3.5px" ry="3.5px" style="fill:rgb(255,255,255); stroke:rgb(0,0,0); stroke-width:1.0px;"/>
<polygon points=" 406.0,484.0 415.0,474.0 413.0,487.0 " style="fill:rgb(255,255,255); stroke:rgb(0,0,0); stroke-width:1.0px;"/>
<path d="M 221.0 435.0 L 365.0 435.0" style="fill:none; stroke:rgb(0,0,0); stroke-linecap:round; stroke-linejoin:bevel; stroke-width:1.0px;"/>
<polygon points=" 353.0,430.0 365.0,435.0 353.0,439.0 " style="fill:rgb(0,0,0); stroke:rgb(0,0,0); stroke-linecap:round; stroke-linejoin:bevel; stroke-width:1.0px;"/>
<path d="M 198.0 467.0 L 218.0 535.0" style="fill:none; stroke:rgb(0,0,0); stroke-dasharray:2 3; stroke-width:1.0px;"/>
<polyline points=" 205.0,477.0 198.0,467.0 198.0,479.0 " style="fill:none; stroke:rgb(0,0,0); stroke-width:1.0px;"/>
<polygon points=" 561.0,437.0 588.0,463.0 614.0,437.0 588.0,410.0 " style="fill:none; stroke:rgb(219,219,219); stroke-width:2.0px;"/>
<line x1="595.0px" y1="448.0px" x2="580.0px" y2="425.0px" style="stroke:rgb(219,219,219); stroke-width:7.0px;"/>
<line x1="595.0px" y1="425.0px" x2="580.0px" y2="448.0px" style="stroke:rgb(219,219,219); stroke-width:7.0px;"/>
<polygon points=" 561.0,436.0 588.0,462.0 614.0,436.0 588.0,409.0 " style="fill:none; stroke:rgb(219,219,219); stroke-width:2.0px;"/>
<line x1="595.0px" y1="447.0px" x2="580.0px" y2="424.0px" style="stroke:rgb(219,219,219); stroke-width:7.0px;"/>
<line x1="595.0px" y1="424.0px" x2="580.0px" y2="447.0px" style="stroke:rgb(219,219,219); stroke-width:7.0px;"/>
<polygon points=" 560.0,436.0 587.0,462.0 613.0,436.0 587.0,409.0 " style="fill:none; stroke:rgb(169,169,169); stroke-width:2.0px;"/>
<line x1="594.0px" y1="447.0px" x2="579.0px" y2="424.0px" style="stroke:rgb(169,169,169); stroke-width:7.0px;"/>
<line x1="594.0px" y1="424.0px" x2="579.0px" y2="447.0px" style="stroke:rgb(169,169,169); stroke-width:7.0px;"/>
<polygon points=" 560.0,435.0 587.0,461.0 613.0,435.0 587.0,408.0 " style="fill:none; stroke:rgb(169,169,169); stroke-width:2.0px;"/>
<line x1="594.0px" y1="446.0px" x2="579.0px" y2="423.0px" style="stroke:rgb(169,169,169); stroke-width:7.0px;"/>
<line x1="594.0px" y1="423.0px" x2="579.0px" y2="446.0px" style="stroke:rgb(169,169,169); stroke-width:7.0px;"/>
<clipPath id="AdoSvgClip25">
<polygon points=" 559.0,435.0 586.0,461.0 612.0,435.0 586.0,408.0 " style="fill:none;"/>
</clipPath>
<g clip-path="url(#AdoSvgClip25)">
<linearGradient id="AdoSvgGradient3" x1="0%" y1="0%" x2="100%" y2="100%"><stop offset="5%" stop-color="rgb(255,255,255)"/><stop offset="95%" stop-color="rgb(238,238,0)"/></linearGradient>
<rect x="537.0px" y="389.0px" width="106.0px" height="91.0px" style="fill:url(#AdoSvgGradient3);"/>
</g>
<polygon points=" 559.0,435.0 586.0,461.0 612.0,435.0 586.0,408.0 " style="fill:none; stroke:rgb(171,171,42); stroke-width:2.0px;"/>
<line x1="593.0px" y1="446.0px" x2="578.0px" y2="423.0px" style="stroke:rgb(171,171,42); stroke-width:7.0px;"/>
<line x1="593.0px" y1="423.0px" x2="578.0px" y2="446.0px" style="stroke:rgb(171,171,42); stroke-width:7.0px;"/>
<path d="M 504.0 435.0 L 554.0 435.0" style="fill:none; stroke:rgb(0,0,0); stroke-linecap:round; stroke-linejoin:bevel; stroke-width:1.0px;"/>
<polygon points=" 541.0,430.0 554.0,435.0 541.0,439.0 " style="fill:rgb(0,0,0); stroke:rgb(0,0,0); stroke-linecap:round; stroke-linejoin:bevel; stroke-width:1.0px;"/>
<polygon points=" 883.0,437.0 909.0,463.0 936.0,437.0 909.0,410.0 " style="fill:none; stroke:rgb(219,219,219); stroke-width:2.0px;"/>
<line x1="917.0px" y1="448.0px" x2="902.0px" y2="425.0px" style="stroke:rgb(219,219,219); stroke-width:7.0px;"/>
<line x1="917.0px" y1="425.0px" x2="902.0px" y2="448.0px" style="stroke:rgb(219,219,219); stroke-width:7.0px;"/>
<polygon points=" 883.0,436.0 909.0,462.0 936.0,436.0 909.0,409.0 " style="fill:none; stroke:rgb(219,219,219); stroke-width:2.0px;"/>
<line x1="917.0px" y1="447.0px" x2="902.0px" y2="424.0px" style="stroke:rgb(219,219,219); stroke-width:7.0px;"/>
<line x1="917.0px" y1="424.0px" x2="902.0px" y2="447.0px" style="stroke:rgb(219,219,219); stroke-width:7.0px;"/>
<polygon points=" 882.0,436.0 908.0,462.0 935.0,436.0 908.0,409.0 " style="fill:none; stroke:rgb(169,169,169); stroke-width:2.0px;"/>
<line x1="916.0px" y1="447.0px" x2="901.0px" y2="424.0px" style="stroke:rgb(169,169,169); stroke-width:7.0px;"/>
<line x1="916.0px" y1="424.0px" x2="901.0px" y2="447.0px" style="stroke:rgb(169,169,169); stroke-width:7.0px;"/>
<polygon points=" 882.0,435.0 908.0,461.0 935.0,435.0 908.0,408.0 " style="fill:none; stroke:rgb(169,169,169); stroke-width:2.0px;"/>
<line x1="916.0px" y1="446.0px" x2="901.0px" y2="423.0px" style="stroke:rgb(169,169,169); stroke-width:7.0px;"/>
<line x1="916.0px" y1="423.0px" x2="901.0px" y2="446.0px" style="stroke:rgb(169,169,169); stroke-width:7.0px;"/>
<clipPath id="AdoSvgClip30">
<polygon points=" 881.0,435.0 907.0,461.0 934.0,435.0 907.0,408.0 " style="fill:none;"/>
</clipPath>
<g clip-path="url(#AdoSvgClip30)">
<linearGradient id="AdoSvgGradient4" x1="0%" y1="0%" x2="100%" y2="100%"><stop offset="5%" stop-color="rgb(255,255,255)"/><stop offset="95%" stop-color="rgb(238,238,0)"/></linearGradient>
<rect x="858.0px" y="389.0px" width="106.0px" height="91.0px" style="fill:url(#AdoSvgGradient4);"/>
</g>
<polygon points=" 881.0,435.0 907.0,461.0 934.0,435.0 907.0,408.0 " style="fill:none; stroke:rgb(171,171,42); stroke-width:2.0px;"/>
<line x1="915.0px" y1="446.0px" x2="900.0px" y2="423.0px" style="stroke:rgb(171,171,42); stroke-width:7.0px;"/>
<line x1="915.0px" y1="423.0px" x2="900.0px" y2="446.0px" style="stroke:rgb(171,171,42); stroke-width:7.0px;"/>
<path d="M 618.0 435.0 L 686.0 435.0" style="fill:none; stroke:rgb(0,0,0); stroke-linecap:round; stroke-linejoin:bevel; stroke-width:1.0px;"/>
<polygon points=" 674.0,430.0 686.0,435.0 674.0,439.0 " style="fill:rgb(0,0,0); stroke:rgb(0,0,0); stroke-linecap:round; stroke-linejoin:bevel; stroke-width:1.0px;"/>
<clipPath id="AdoSvgClip35">
<ellipse cx="718.0px" cy="435.0px" rx="26.5px" ry="26.5px" style="fill:none;"/>
</clipPath>
<g clip-path="url(#AdoSvgClip35)">
<linearGradient id="AdoSvgGradient5" x1="0%" y1="0%" x2="100%" y2="100%"><stop offset="5%" stop-color="rgb(255,255,255)"/><stop offset="95%" stop-color="rgb(255,255,0)"/></linearGradient>
<rect x="684.0px" y="408.0px" width="106.0px" height="53.0px" style="fill:url(#AdoSvgGradient5);"/>
</g>
<ellipse cx="718.5px" cy="435.5px" rx="26.0px" ry="26.0px" style="fill:rgb(255,255,255); stroke:rgb(0,0,0); stroke-width:1.0px;"/>
<ellipse cx="718.5px" cy="435.5px" rx="22.5px" ry="22.5px" style="fill:rgb(255,255,0); stroke:rgb(0,0,0); stroke-width:1.0px;"/>
<rect x="703.0px" y="423.0px" width="30.0px" height="23.0px" rx="0.0px" ry="0.0px" style="fill:rgb(0,0,0); stroke:rgb(0,0,0); stroke-width:2.0px;"/>
<polyline points=" 703.0,423.0 718.0,435.0 733.0,423.0 " style="fill:none; stroke:rgb(255,255,255); stroke-width:1.0px;"/>
<text transform="translate(699.0,465.0), rotate(-0.0)" x="0px" y="0px" textLength="39.0px"
 style="font-family:Arial; font-size:13.0px; fill:rgb(0,0,0); stroke:none; baseline-shift:-13.0px; ">
   accept
</text>
<path d="M 750.0 435.0 L 807.0 435.0 L 818.0 435.0 L 875.0 435.0" style="fill:none; stroke:rgb(0,0,0); stroke-linecap:round; stroke-linejoin:bevel; stroke-width:1.0px;"/>
<polygon points=" 862.0,430.0 875.0,435.0 862.0,439.0 " style="fill:rgb(0,0,0); stroke:rgb(0,0,0); stroke-linecap:round; stroke-linejoin:bevel; stroke-width:1.0px;"/>
<path d="M 586.0 484.0 L 586.0 544.0 C 586.0 546.0 588.0 548.0 590.0 548.0 L 610.0 548.0 L 622.0 548.0 L 903.0 548.0 C 905.0 548.0 907.0 546.0 907.0 544.0 L 907.0 467.0" style="fill:none; stroke:rgb(0,0,0); stroke-linecap:round; stroke-linejoin:bevel; stroke-width:1.0px;"/>
<polygon points=" 903.0,479.0 907.0,467.0 911.0,479.0 " style="fill:rgb(0,0,0); stroke:rgb(0,0,0); stroke-linecap:round; stroke-linejoin:bevel; stroke-width:1.0px;"/>
<clipPath id="AdoSvgClip40">
<ellipse cx="813.0px" cy="548.0px" rx="26.5px" ry="26.5px" style="fill:none;"/>
</clipPath>
<g clip-path="url(#AdoSvgClip40)">
<linearGradient id="AdoSvgGradient6" x1="0%" y1="0%" x2="100%" y2="100%"><stop offset="5%" stop-color="rgb(255,255,255)"/><stop offset="95%" stop-color="rgb(255,255,0)"/></linearGradient>
<rect x="779.0px" y="522.0px" width="105.0px" height="52.0px" style="fill:url(#AdoSvgGradient6);"/>
</g>
<ellipse cx="813.5px" cy="548.5px" rx="26.0px" ry="26.0px" style="fill:rgb(255,255,255); stroke:rgb(0,0,0); stroke-width:1.0px;"/>
<ellipse cx="813.5px" cy="548.5px" rx="22.5px" ry="22.5px" style="fill:rgb(255,255,0); stroke:rgb(0,0,0); stroke-width:1.0px;"/>
<rect x="797.0px" y="537.0px" width="31.0px" height="22.0px" rx="0.0px" ry="0.0px" style="fill:rgb(0,0,0); stroke:rgb(0,0,0); stroke-width:2.0px;"/>
<polyline points=" 797.0,537.0 813.0,548.0 828.0,537.0 " style="fill:none; stroke:rgb(255,255,255); stroke-width:1.0px;"/>
<text transform="translate(797.0,578.0), rotate(-0.0)" x="0px" y="0px" textLength="32.0px"
 style="font-family:Arial; font-size:13.0px; fill:rgb(0,0,0); stroke:none; baseline-shift:-13.0px; ">
   reject
</text>
<path d="M 718.0 403.0 L 718.0 214.0" style="fill:none; stroke:rgb(0,0,0); stroke-dasharray:6 4; stroke-width:2.0px;"/>
<ellipse cx="718.5px" cy="403.5px" rx="3.5px" ry="3.5px" style="fill:rgb(255,255,255); stroke:rgb(0,0,0); stroke-width:1.0px;"/>
<polygon points=" 714.0,226.0 718.0,214.0 722.0,226.0 " style="fill:rgb(255,255,255); stroke:rgb(0,0,0); stroke-width:1.0px;"/>
<path d="M 813.0 516.0 L 813.0 440.0 C 810.0 440.0 807.0 438.0 807.0 435.0 807.0 432.0 810.0 429.0 813.0 429.0 L 813.0 214.0" style="fill:none; stroke:rgb(0,0,0); stroke-dasharray:6 4; stroke-width:2.0px;"/>
<ellipse cx="813.5px" cy="516.5px" rx="3.5px" ry="3.5px" style="fill:rgb(255,255,255); stroke:rgb(0,0,0); stroke-width:1.0px;"/>
<polygon points=" 808.0,226.0 813.0,214.0 817.0,226.0 " style="fill:rgb(255,255,255); stroke:rgb(0,0,0); stroke-width:1.0px;"/>
<path d="M 189.0 214.0 L 189.0 403.0" style="fill:none; stroke:rgb(0,0,0); stroke-dasharray:6 4; stroke-width:2.0px;"/>
<ellipse cx="189.5px" cy="214.5px" rx="3.5px" ry="3.5px" style="fill:rgb(255,255,255); stroke:rgb(0,0,0); stroke-width:1.0px;"/>
<polygon points=" 193.0,390.0 189.0,403.0 185.0,390.0 " style="fill:rgb(255,255,255); stroke:rgb(0,0,0); stroke-width:1.0px;"/>
<clipPath id="AdoSvgClip45">
<ellipse cx="1077.0px" cy="435.0px" rx="26.5px" ry="26.5px" style="fill:none;"/>
</clipPath>
<g clip-path="url(#AdoSvgClip45)">
<linearGradient id="AdoSvgGradient7" x1="0%" y1="0%" x2="100%" y2="100%"><stop offset="5%" stop-color="rgb(255,255,255)"/><stop offset="95%" stop-color="rgb(255,0,0)"/></linearGradient>
<rect x="1043.0px" y="408.0px" width="106.0px" height="53.0px" style="fill:url(#AdoSvgGradient7);"/>
</g>
<ellipse cx="1077.0px" cy="435.0px" rx="23.5px" ry="23.5px" style="fill:none; stroke:rgb(0,0,0); stroke-width:5.0px;"/>
<path d="M 939.0 435.0 L 1045.0 435.0" style="fill:none; stroke:rgb(0,0,0); stroke-linecap:round; stroke-linejoin:bevel; stroke-width:1.0px;"/>
<polygon points=" 1033.0,430.0 1045.0,435.0 1033.0,439.0 " style="fill:rgb(0,0,0); stroke:rgb(0,0,0); stroke-linecap:round; stroke-linejoin:bevel; stroke-width:1.0px;"/>
<polygon points=" 478.0,652.0 433.0,652.0 433.0,599.0 463.0,599.0 478.0,614.0 " style="fill:none; stroke:rgb(219,219,219); stroke-width:2.0px;"/>
<polyline points=" 463.0,599.0 463.0,614.0 478.0,614.0 " style="fill:none; stroke:rgb(219,219,219); stroke-width:2.0px;"/>
<polygon points=" 437.0,611.0 444.0,611.0 444.0,607.0 456.0,614.0 444.0,622.0 444.0,618.0 437.0,618.0 " style="fill:none; stroke:rgb(219,219,219); stroke-width:2.0px;"/>
<polygon points=" 478.0,651.0 433.0,651.0 433.0,598.0 463.0,598.0 478.0,613.0 " style="fill:none; stroke:rgb(219,219,219); stroke-width:2.0px;"/>
<polyline points=" 463.0,598.0 463.0,613.0 478.0,613.0 " style="fill:none; stroke:rgb(219,219,219); stroke-width:2.0px;"/>
<polygon points=" 437.0,610.0 444.0,610.0 444.0,606.0 456.0,613.0 444.0,621.0 444.0,617.0 437.0,617.0 " style="fill:none; stroke:rgb(219,219,219); stroke-width:2.0px;"/>
<polygon points=" 477.0,651.0 432.0,651.0 432.0,598.0 462.0,598.0 477.0,613.0 " style="fill:none; stroke:rgb(169,169,169); stroke-width:2.0px;"/>
<polyline points=" 462.0,598.0 462.0,613.0 477.0,613.0 " style="fill:none; stroke:rgb(169,169,169); stroke-width:2.0px;"/>
<polygon points=" 436.0,610.0 443.0,610.0 443.0,606.0 455.0,613.0 443.0,621.0 443.0,617.0 436.0,617.0 " style="fill:none; stroke:rgb(169,169,169); stroke-width:2.0px;"/>
<polygon points=" 477.0,650.0 432.0,650.0 432.0,597.0 462.0,597.0 477.0,612.0 " style="fill:none; stroke:rgb(169,169,169); stroke-width:2.0px;"/>
<polyline points=" 462.0,597.0 462.0,612.0 477.0,612.0 " style="fill:none; stroke:rgb(169,169,169); stroke-width:2.0px;"/>
<polygon points=" 436.0,609.0 443.0,609.0 443.0,605.0 455.0,612.0 443.0,620.0 443.0,616.0 436.0,616.0 " style="fill:none; stroke:rgb(169,169,169); stroke-width:2.0px;"/>
<clipPath id="AdoSvgClip50">
<polygon points=" 476.0,650.0 431.0,650.0 431.0,597.0 461.0,597.0 476.0,612.0 " style="fill:none;"/>
</clipPath>
<g clip-path="url(#AdoSvgClip50)">
<linearGradient id="AdoSvgGradient8" x1="0%" y1="0%" x2="100%" y2="100%"><stop offset="5%" stop-color="rgb(255,255,255)"/><stop offset="95%" stop-color="rgb(255,255,255)"/></linearGradient>
<rect x="420.0px" y="597.0px" width="105.0px" height="53.0px" style="fill:url(#AdoSvgGradient8);"/>
</g>
<polygon points=" 476.0,650.0 431.0,650.0 431.0,597.0 461.0,597.0 476.0,612.0 " style="fill:none; stroke:rgb(170,170,170); stroke-width:2.0px;"/>
<polyline points=" 461.0,597.0 461.0,612.0 476.0,612.0 " style="fill:none; stroke:rgb(170,170,170); stroke-width:2.0px;"/>
<polygon points=" 435.0,609.0 442.0,609.0 442.0,605.0 454.0,612.0 442.0,620.0 442.0,616.0 435.0,616.0 " style="fill:rgb(0,0,0); stroke:rgb(170,170,170); stroke-width:2.0px;"/>
<text transform="translate(425.0,661.0), rotate(-0.0)" x="0px" y="0px" textLength="57.0px"
 style="font-family:Arial; font-size:13.0px; fill:rgb(0,0,0); stroke:none; baseline-shift:-13.0px; ">
   Validation
</text>
<path d="M 439.0 474.0 L 451.0 591.0" style="fill:none; stroke:rgb(0,0,0); stroke-dasharray:2 3; stroke-width:1.0px;"/>
<polyline points=" 446.0,581.0 451.0,591.0 453.0,580.0 " style="fill:none; stroke:rgb(0,0,0); stroke-width:1.0px;"/>
<polygon points=" 573.0,652.0 527.0,652.0 527.0,599.0 558.0,599.0 573.0,614.0 " style="fill:none; stroke:rgb(219,219,219); stroke-width:2.0px;"/>
<polyline points=" 558.0,599.0 558.0,614.0 573.0,614.0 " style="fill:none; stroke:rgb(219,219,219); stroke-width:2.0px;"/>
<polygon points=" 531.0,611.0 539.0,611.0 539.0,607.0 550.0,614.0 539.0,622.0 539.0,618.0 531.0,618.0 " style="fill:none; stroke:rgb(219,219,219); stroke-width:2.0px;"/>
<polygon points=" 573.0,651.0 527.0,651.0 527.0,598.0 558.0,598.0 573.0,613.0 " style="fill:none; stroke:rgb(219,219,219); stroke-width:2.0px;"/>
<polyline points=" 558.0,598.0 558.0,613.0 573.0,613.0 " style="fill:none; stroke:rgb(219,219,219); stroke-width:2.0px;"/>
<polygon points=" 531.0,610.0 539.0,610.0 539.0,606.0 550.0,613.0 539.0,621.0 539.0,617.0 531.0,617.0 " style="fill:none; stroke:rgb(219,219,219); stroke-width:2.0px;"/>
<polygon points=" 572.0,651.0 526.0,651.0 526.0,598.0 557.0,598.0 572.0,613.0 " style="fill:none; stroke:rgb(169,169,169); stroke-width:2.0px;"/>
<polyline points=" 557.0,598.0 557.0,613.0 572.0,613.0 " style="fill:none; stroke:rgb(169,169,169); stroke-width:2.0px;"/>
<polygon points=" 530.0,610.0 538.0,610.0 538.0,606.0 549.0,613.0 538.0,621.0 538.0,617.0 530.0,617.0 " style="fill:none; stroke:rgb(169,169,169); stroke-width:2.0px;"/>
<polygon points=" 572.0,650.0 526.0,650.0 526.0,597.0 557.0,597.0 572.0,612.0 " style="fill:none; stroke:rgb(169,169,169); stroke-width:2.0px;"/>
<polyline points=" 557.0,597.0 557.0,612.0 572.0,612.0 " style="fill:none; stroke:rgb(169,169,169); stroke-width:2.0px;"/>
<polygon points=" 530.0,609.0 538.0,609.0 538.0,605.0 549.0,612.0 538.0,620.0 538.0,616.0 530.0,616.0 " style="fill:none; stroke:rgb(169,169,169); stroke-width:2.0px;"/>
<clipPath id="AdoSvgClip55">
<polygon points=" 571.0,650.0 525.0,650.0 525.0,597.0 556.0,597.0 571.0,612.0 " style="fill:none;"/>
</clipPath>
<g clip-path="url(#AdoSvgClip55)">
<linearGradient id="AdoSvgGradient9" x1="0%" y1="0%" x2="100%" y2="100%"><stop offset="5%" stop-color="rgb(255,255,255)"/><stop offset="95%" stop-color="rgb(255,255,255)"/></linearGradient>
<rect x="514.0px" y="597.0px" width="106.0px" height="53.0px" style="fill:url(#AdoSvgGradient9);"/>
</g>
<polygon points=" 571.0,650.0 525.0,650.0 525.0,597.0 556.0,597.0 571.0,612.0 " style="fill:none; stroke:rgb(170,170,170); stroke-width:2.0px;"/>
<polyline points=" 556.0,597.0 556.0,612.0 571.0,612.0 " style="fill:none; stroke:rgb(170,170,170); stroke-width:2.0px;"/>
<polygon points=" 529.0,609.0 537.0,609.0 537.0,605.0 548.0,612.0 537.0,620.0 537.0,616.0 529.0,616.0 " style="fill:rgb(255,255,255); stroke:rgb(170,170,170); stroke-width:2.0px;"/>
<text transform="translate(518.0,661.0), rotate(-0.0)" x="0px" y="0px" textLength="61.0px"
 style="font-family:Arial; font-size:13.0px; fill:rgb(0,0,0); stroke:none; baseline-shift:-13.0px; ">
   Validation 
</text>
<path d="M 689.0 467.0 L 620.0 544.0 C 622.0 546.0 622.0 550.0 620.0 552.0 618.0 554.0 615.0 554.0 612.0 552.0 L 576.0 592.0" style="fill:none; stroke:rgb(0,0,0); stroke-dasharray:2 3; stroke-width:1.0px;"/>
<polyline points=" 684.0,478.0 689.0,467.0 679.0,473.0 " style="fill:none; stroke:rgb(0,0,0); stroke-width:1.0px;"/>
<path d="M 780.0 557.0 L 576.0 616.0" style="fill:none; stroke:rgb(0,0,0); stroke-dasharray:2 3; stroke-width:1.0px;"/>
<polyline points=" 771.0,564.0 780.0,557.0 768.0,557.0 " style="fill:none; stroke:rgb(0,0,0); stroke-width:1.0px;"/>
</g>
</svg>
