<?xml version="1.0" encoding="UTF-8" standalone="no"?>
<svg width="2996.0px" height="1497.0px" version="1.1" xmlns="http://www.w3.org/2000/svg" xmlns:xlink="http://www.w3.org/1999/xlink">
<g>
<rect x="0.0px" y="0.0px" width="2996.0px" height="1497.0px" rx="0.0px" ry="0.0px" style="fill:rgb(255,255,255);"/>
<rect x="418.5px" y="474.5px" width="151.0px" height="76.0px" rx="0.0px" ry="0.0px" style="fill:none; stroke:rgb(219,219,219); stroke-width:1.0px;"/>
<rect x="418.5px" y="473.5px" width="151.0px" height="76.0px" rx="0.0px" ry="0.0px" style="fill:none; stroke:rgb(219,219,219); stroke-width:1.0px;"/>
<rect x="417.5px" y="473.5px" width="151.0px" height="76.0px" rx="0.0px" ry="0.0px" style="fill:none; stroke:rgb(169,169,169); stroke-width:1.0px;"/>
<rect x="417.5px" y="472.5px" width="151.0px" height="76.0px" rx="0.0px" ry="0.0px" style="fill:none; stroke:rgb(169,169,169); stroke-width:1.0px;"/>
<rect x="416.5px" y="472.5px" width="151.0px" height="76.0px" rx="0.0px" ry="0.0px" style="fill:rgb(255,255,255); stroke:rgb(0,0,0); stroke-width:1.0px;"/>
<text transform="translate(470.0,502.0), rotate(-0.0)" x="0px" y="0px" textLength="43.0px"
 style="font-family:Arial; font-size:13.0px; fill:rgb(0,0,0); stroke:none; baseline-shift:-13.0px; ">
   EVENT
</text>
<rect x="720.5px" y="626.5px" width="151.0px" height="75.0px" rx="0.0px" ry="0.0px" style="fill:none; stroke:rgb(219,219,219); stroke-width:1.0px;"/>
<rect x="720.5px" y="625.5px" width="151.0px" height="75.0px" rx="0.0px" ry="0.0px" style="fill:none; stroke:rgb(219,219,219); stroke-width:1.0px;"/>
<rect x="719.5px" y="625.5px" width="151.0px" height="75.0px" rx="0.0px" ry="0.0px" style="fill:none; stroke:rgb(169,169,169); stroke-width:1.0px;"/>
<rect x="719.5px" y="624.5px" width="151.0px" height="75.0px" rx="0.0px" ry="0.0px" style="fill:none; stroke:rgb(169,169,169); stroke-width:1.0px;"/>
<rect x="718.5px" y="624.5px" width="151.0px" height="75.0px" rx="0.0px" ry="0.0px" style="fill:rgb(255,255,255); stroke:rgb(0,0,0); stroke-width:1.0px;"/>
<text transform="translate(747.0,653.0), rotate(-0.0)" x="0px" y="0px" textLength="94.0px"
 style="font-family:Arial; font-size:13.0px; fill:rgb(0,0,0); stroke:none; baseline-shift:-13.0px; ">
   COFFEE-SHOP
</text>
<rect x="1193.5px" y="626.5px" width="151.0px" height="75.0px" rx="0.0px" ry="0.0px" style="fill:none; stroke:rgb(219,219,219); stroke-width:1.0px;"/>
<rect x="1193.5px" y="625.5px" width="151.0px" height="75.0px" rx="0.0px" ry="0.0px" style="fill:none; stroke:rgb(219,219,219); stroke-width:1.0px;"/>
<rect x="1192.5px" y="625.5px" width="151.0px" height="75.0px" rx="0.0px" ry="0.0px" style="fill:none; stroke:rgb(169,169,169); stroke-width:1.0px;"/>
<rect x="1192.5px" y="624.5px" width="151.0px" height="75.0px" rx="0.0px" ry="0.0px" style="fill:none; stroke:rgb(169,169,169); stroke-width:1.0px;"/>
<rect x="1191.5px" y="624.5px" width="151.0px" height="75.0px" rx="0.0px" ry="0.0px" style="fill:rgb(255,255,255); stroke:rgb(0,0,0); stroke-width:1.0px;"/>
<text transform="translate(1224.0,653.0), rotate(-0.0)" x="0px" y="0px" textLength="85.0px"
 style="font-family:Arial; font-size:13.0px; fill:rgb(0,0,0); stroke:none; baseline-shift:-13.0px; ">
   BUS-STATION
</text>
<polygon points=" 2557.0,172.0 2610.0,212.0 2663.0,172.0 2610.0,132.0 " style="fill:none; stroke:rgb(219,219,219); stroke-width:1.0px;"/>
<polygon points=" 2557.0,171.0 2610.0,211.0 2663.0,171.0 2610.0,131.0 " style="fill:none; stroke:rgb(219,219,219); stroke-width:1.0px;"/>
<polygon points=" 2556.0,171.0 2609.0,211.0 2662.0,171.0 2609.0,131.0 " style="fill:none; stroke:rgb(169,169,169); stroke-width:1.0px;"/>
<polygon points=" 2556.0,170.0 2609.0,210.0 2662.0,170.0 2609.0,130.0 " style="fill:none; stroke:rgb(169,169,169); stroke-width:1.0px;"/>
<polygon points=" 2555.0,170.0 2608.0,210.0 2661.0,170.0 2608.0,130.0 " style="fill:rgb(255,255,255); stroke:rgb(0,0,0); stroke-width:1.0px;"/>
<text transform="translate(2590.0,162.0), rotate(-0.0)" x="0px" y="0px" textLength="36.0px"
 style="font-family:Arial; font-size:13.0px; fill:rgb(0,0,0); stroke:none; baseline-shift:-13.0px; ">
   USER
</text>
<rect x="626.5px" y="248.5px" width="151.0px" height="75.0px" rx="0.0px" ry="0.0px" style="fill:none; stroke:rgb(219,219,219); stroke-width:1.0px;"/>
<rect x="626.5px" y="247.5px" width="151.0px" height="75.0px" rx="0.0px" ry="0.0px" style="fill:none; stroke:rgb(219,219,219); stroke-width:1.0px;"/>
<rect x="625.5px" y="247.5px" width="151.0px" height="75.0px" rx="0.0px" ry="0.0px" style="fill:none; stroke:rgb(169,169,169); stroke-width:1.0px;"/>
<rect x="625.5px" y="246.5px" width="151.0px" height="75.0px" rx="0.0px" ry="0.0px" style="fill:none; stroke:rgb(169,169,169); stroke-width:1.0px;"/>
<rect x="624.5px" y="246.5px" width="151.0px" height="75.0px" rx="0.0px" ry="0.0px" style="fill:rgb(255,255,255); stroke:rgb(0,0,0); stroke-width:1.0px;"/>
<text transform="translate(666.0,276.0), rotate(-0.0)" x="0px" y="0px" textLength="66.0px"
 style="font-family:Arial; font-size:13.0px; fill:rgb(0,0,0); stroke:none; baseline-shift:-13.0px; ">
   COMPANY
</text>
<rect x="815.5px" y="248.5px" width="151.0px" height="75.0px" rx="0.0px" ry="0.0px" style="fill:none; stroke:rgb(219,219,219); stroke-width:1.0px;"/>
<rect x="815.5px" y="247.5px" width="151.0px" height="75.0px" rx="0.0px" ry="0.0px" style="fill:none; stroke:rgb(219,219,219); stroke-width:1.0px;"/>
<rect x="814.5px" y="247.5px" width="151.0px" height="75.0px" rx="0.0px" ry="0.0px" style="fill:none; stroke:rgb(169,169,169); stroke-width:1.0px;"/>
<rect x="814.5px" y="246.5px" width="151.0px" height="75.0px" rx="0.0px" ry="0.0px" style="fill:none; stroke:rgb(169,169,169); stroke-width:1.0px;"/>
<rect x="813.5px" y="246.5px" width="151.0px" height="75.0px" rx="0.0px" ry="0.0px" style="fill:rgb(255,255,255); stroke:rgb(0,0,0); stroke-width:1.0px;"/>
<text transform="translate(877.0,276.0), rotate(-0.0)" x="0px" y="0px" textLength="22.0px"
 style="font-family:Arial; font-size:13.0px; fill:rgb(0,0,0); stroke:none; baseline-shift:-13.0px; ">
   POI
</text>
<polygon points=" 837.0,418.0 890.0,457.0 943.0,418.0 890.0,378.0 " style="fill:none; stroke:rgb(219,219,219); stroke-width:1.0px;"/>
<polygon points=" 837.0,417.0 890.0,456.0 943.0,417.0 890.0,377.0 " style="fill:none; stroke:rgb(219,219,219); stroke-width:1.0px;"/>
<polygon points=" 836.0,417.0 889.0,456.0 942.0,417.0 889.0,377.0 " style="fill:none; stroke:rgb(169,169,169); stroke-width:1.0px;"/>
<polygon points=" 836.0,416.0 889.0,455.0 942.0,416.0 889.0,376.0 " style="fill:none; stroke:rgb(169,169,169); stroke-width:1.0px;"/>
<polygon points=" 835.0,416.0 888.0,455.0 941.0,416.0 888.0,376.0 " style="fill:rgb(255,255,255); stroke:rgb(0,0,0); stroke-width:1.0px;"/>
<text transform="translate(866.0,408.0), rotate(-0.0)" x="0px" y="0px" textLength="46.0px"
 style="font-family:Arial; font-size:13.0px; fill:rgb(0,0,0); stroke:none; baseline-shift:-13.0px; ">
   near_by
</text>
<path d="M 871.0 461.0 L 810.0 618.0" style="fill:none; stroke:rgb(0,0,0); stroke-width:1.0px;"/>
<text transform="translate(841.0,455.0), rotate(-0.0)" x="0px" y="0px" textLength="26.0px"
 style="font-family:Arial; font-size:13.0px; fill:rgb(0,0,0); stroke:none; baseline-shift:-13.0px; ">
   (0,n)
</text>
<polygon points=" 810.0,618.0 817.0,612.0 812.0,615.0 810.0,610.0 " style="fill:rgb(0,0,0); stroke:rgb(0,0,0); stroke-width:1.0px;"/>
<path d="M 888.0 370.0 L 888.0 327.0" style="fill:none; stroke:rgb(0,0,0); stroke-width:1.0px;"/>
<text transform="translate(890.0,355.0), rotate(-0.0)" x="0px" y="0px" textLength="26.0px"
 style="font-family:Arial; font-size:13.0px; fill:rgb(0,0,0); stroke:none; baseline-shift:-13.0px; ">
   (1,n)
</text>
<polygon points=" 888.0,327.0 884.0,334.0 888.0,331.0 892.0,334.0 " style="fill:rgb(0,0,0); stroke:rgb(0,0,0); stroke-width:1.0px;"/>
<polygon points=" 988.0,663.0 1041.0,703.0 1094.0,663.0 1041.0,624.0 " style="fill:none; stroke:rgb(219,219,219); stroke-width:1.0px;"/>
<polygon points=" 988.0,662.0 1041.0,702.0 1094.0,662.0 1041.0,623.0 " style="fill:none; stroke:rgb(219,219,219); stroke-width:1.0px;"/>
<polygon points=" 987.0,662.0 1040.0,702.0 1093.0,662.0 1040.0,623.0 " style="fill:none; stroke:rgb(169,169,169); stroke-width:1.0px;"/>
<polygon points=" 987.0,661.0 1040.0,701.0 1093.0,661.0 1040.0,622.0 " style="fill:none; stroke:rgb(169,169,169); stroke-width:1.0px;"/>
<polygon points=" 986.0,661.0 1039.0,701.0 1092.0,661.0 1039.0,622.0 " style="fill:rgb(255,255,255); stroke:rgb(0,0,0); stroke-width:1.0px;"/>
<text transform="translate(1011.0,653.0), rotate(-0.0)" x="0px" y="0px" textLength="56.0px"
 style="font-family:Arial; font-size:13.0px; fill:rgb(0,0,0); stroke:none; baseline-shift:-13.0px; ">
   reachable
</text>
<path d="M 1098.0 661.0 L 1185.0 661.0" style="fill:none; stroke:rgb(0,0,0); stroke-width:1.0px;"/>
<text transform="translate(1093.0,669.0), rotate(-0.0)" x="0px" y="0px" textLength="26.0px"
 style="font-family:Arial; font-size:13.0px; fill:rgb(0,0,0); stroke:none; baseline-shift:-13.0px; ">
   (1,n)
</text>
<polygon points=" 1185.0,661.0 1177.0,658.0 1181.0,661.0 1177.0,665.0 " style="fill:rgb(0,0,0); stroke:rgb(0,0,0); stroke-width:1.0px;"/>
<path d="M 981.0 661.0 L 875.0 661.0" style="fill:none; stroke:rgb(0,0,0); stroke-width:1.0px;"/>
<text transform="translate(960.0,638.0), rotate(-0.0)" x="0px" y="0px" textLength="26.0px"
 style="font-family:Arial; font-size:13.0px; fill:rgb(0,0,0); stroke:none; baseline-shift:-13.0px; ">
   (0,n)
</text>
<polygon points=" 875.0,661.0 883.0,665.0 879.0,661.0 883.0,658.0 " style="fill:rgb(0,0,0); stroke:rgb(0,0,0); stroke-width:1.0px;"/>
<polygon points=" 648.0,418.0 701.0,457.0 754.0,418.0 701.0,378.0 " style="fill:none; stroke:rgb(219,219,219); stroke-width:1.0px;"/>
<polygon points=" 648.0,417.0 701.0,456.0 754.0,417.0 701.0,377.0 " style="fill:none; stroke:rgb(219,219,219); stroke-width:1.0px;"/>
<polygon points=" 647.0,417.0 700.0,456.0 753.0,417.0 700.0,377.0 " style="fill:none; stroke:rgb(169,169,169); stroke-width:1.0px;"/>
<polygon points=" 647.0,416.0 700.0,455.0 753.0,416.0 700.0,376.0 " style="fill:none; stroke:rgb(169,169,169); stroke-width:1.0px;"/>
<polygon points=" 646.0,416.0 699.0,455.0 752.0,416.0 699.0,376.0 " style="fill:rgb(255,255,255); stroke:rgb(0,0,0); stroke-width:1.0px;"/>
<text transform="translate(684.0,408.0), rotate(-0.0)" x="0px" y="0px" textLength="30.0px"
 style="font-family:Arial; font-size:13.0px; fill:rgb(0,0,0); stroke:none; baseline-shift:-13.0px; ">
   owns
</text>
<path d="M 717.0 461.0 L 777.0 618.0" style="fill:none; stroke:rgb(0,0,0); stroke-width:1.0px;"/>
<text transform="translate(692.0,466.0), rotate(-0.0)" x="0px" y="0px" textLength="26.0px"
 style="font-family:Arial; font-size:13.0px; fill:rgb(0,0,0); stroke:none; baseline-shift:-13.0px; ">
   (1,1)
</text>
<polygon points=" 777.0,618.0 778.0,610.0 776.0,615.0 771.0,612.0 " style="fill:rgb(0,0,0); stroke:rgb(0,0,0); stroke-width:1.0px;"/>
<path d="M 699.0 370.0 L 699.0 327.0" style="fill:none; stroke:rgb(0,0,0); stroke-width:1.0px;"/>
<text transform="translate(701.0,355.0), rotate(-0.0)" x="0px" y="0px" textLength="26.0px"
 style="font-family:Arial; font-size:13.0px; fill:rgb(0,0,0); stroke:none; baseline-shift:-13.0px; ">
   (1,n)
</text>
<polygon points=" 699.0,327.0 695.0,334.0 699.0,331.0 703.0,334.0 " style="fill:rgb(0,0,0); stroke:rgb(0,0,0); stroke-width:1.0px;"/>
<polygon points=" 440.0,663.0 493.0,703.0 546.0,663.0 493.0,624.0 " style="fill:none; stroke:rgb(219,219,219); stroke-width:1.0px;"/>
<polygon points=" 440.0,662.0 493.0,702.0 546.0,662.0 493.0,623.0 " style="fill:none; stroke:rgb(219,219,219); stroke-width:1.0px;"/>
<polygon points=" 439.0,662.0 492.0,702.0 545.0,662.0 492.0,623.0 " style="fill:none; stroke:rgb(169,169,169); stroke-width:1.0px;"/>
<polygon points=" 439.0,661.0 492.0,701.0 545.0,661.0 492.0,622.0 " style="fill:none; stroke:rgb(169,169,169); stroke-width:1.0px;"/>
<polygon points=" 438.0,661.0 491.0,701.0 544.0,661.0 491.0,622.0 " style="fill:rgb(255,255,255); stroke:rgb(0,0,0); stroke-width:1.0px;"/>
<text transform="translate(453.0,653.0), rotate(-0.0)" x="0px" y="0px" textLength="77.0px"
 style="font-family:Arial; font-size:13.0px; fill:rgb(0,0,0); stroke:none; baseline-shift:-13.0px; ">
   organised_by
</text>
<path d="M 550.0 661.0 L 712.0 661.0" style="fill:none; stroke:rgb(0,0,0); stroke-width:1.0px;"/>
<text transform="translate(545.0,669.0), rotate(-0.0)" x="0px" y="0px" textLength="26.0px"
 style="font-family:Arial; font-size:13.0px; fill:rgb(0,0,0); stroke:none; baseline-shift:-13.0px; ">
   (0,n)
</text>
<polygon points=" 712.0,661.0 705.0,658.0 709.0,661.0 705.0,665.0 " style="fill:rgb(0,0,0); stroke:rgb(0,0,0); stroke-width:1.0px;"/>
<path d="M 491.0 616.0 L 491.0 554.0" style="fill:none; stroke:rgb(0,0,0); stroke-width:1.0px;"/>
<text transform="translate(494.0,601.0), rotate(-0.0)" x="0px" y="0px" textLength="26.0px"
 style="font-family:Arial; font-size:13.0px; fill:rgb(0,0,0); stroke:none; baseline-shift:-13.0px; ">
   (1,n)
</text>
<polygon points=" 491.0,554.0 488.0,561.0 491.0,557.0 495.0,561.0 " style="fill:rgb(0,0,0); stroke:rgb(0,0,0); stroke-width:1.0px;"/>
<rect x="210.5px" y="796.5px" width="151.0px" height="75.0px" rx="0.0px" ry="0.0px" style="fill:none; stroke:rgb(219,219,219); stroke-width:1.0px;"/>
<rect x="210.5px" y="795.5px" width="151.0px" height="75.0px" rx="0.0px" ry="0.0px" style="fill:none; stroke:rgb(219,219,219); stroke-width:1.0px;"/>
<rect x="209.5px" y="795.5px" width="151.0px" height="75.0px" rx="0.0px" ry="0.0px" style="fill:none; stroke:rgb(169,169,169); stroke-width:1.0px;"/>
<rect x="209.5px" y="794.5px" width="151.0px" height="75.0px" rx="0.0px" ry="0.0px" style="fill:none; stroke:rgb(169,169,169); stroke-width:1.0px;"/>
<rect x="208.5px" y="794.5px" width="151.0px" height="75.0px" rx="0.0px" ry="0.0px" style="fill:rgb(255,255,255); stroke:rgb(0,0,0); stroke-width:1.0px;"/>
<text transform="translate(252.0,824.0), rotate(-0.0)" x="0px" y="0px" textLength="64.0px"
 style="font-family:Arial; font-size:13.0px; fill:rgb(0,0,0); stroke:none; baseline-shift:-13.0px; ">
   LOCATION
</text>
<polygon points=" 233.0,663.0 285.0,703.0 338.0,663.0 285.0,624.0 " style="fill:none; stroke:rgb(219,219,219); stroke-width:1.0px;"/>
<polygon points=" 233.0,662.0 285.0,702.0 338.0,662.0 285.0,623.0 " style="fill:none; stroke:rgb(219,219,219); stroke-width:1.0px;"/>
<polygon points=" 232.0,662.0 284.0,702.0 337.0,662.0 284.0,623.0 " style="fill:none; stroke:rgb(169,169,169); stroke-width:1.0px;"/>
<polygon points=" 232.0,661.0 284.0,701.0 337.0,661.0 284.0,622.0 " style="fill:none; stroke:rgb(169,169,169); stroke-width:1.0px;"/>
<polygon points=" 231.0,661.0 283.0,701.0 336.0,661.0 283.0,622.0 " style="fill:rgb(255,255,255); stroke:rgb(0,0,0); stroke-width:1.0px;"/>
<text transform="translate(263.0,653.0), rotate(-0.0)" x="0px" y="0px" textLength="42.0px"
 style="font-family:Arial; font-size:13.0px; fill:rgb(0,0,0); stroke:none; baseline-shift:-13.0px; ">
   located
</text>
<path d="M 283.0 707.0 L 283.0 788.0" style="fill:none; stroke:rgb(0,0,0); stroke-width:1.0px;"/>
<text transform="translate(255.0,706.0), rotate(-0.0)" x="0px" y="0px" textLength="26.0px"
 style="font-family:Arial; font-size:13.0px; fill:rgb(0,0,0); stroke:none; baseline-shift:-13.0px; ">
   (1,n)
</text>
<polygon points=" 283.0,788.0 287.0,780.0 283.0,784.0 280.0,780.0 " style="fill:rgb(0,0,0); stroke:rgb(0,0,0); stroke-width:1.0px;"/>
<path d="M 342.0 661.0 L 433.0 661.0" style="fill:none; stroke:rgb(0,0,0); stroke-width:1.0px;"/>
<text transform="translate(337.0,669.0), rotate(-0.0)" x="0px" y="0px" textLength="26.0px"
 style="font-family:Arial; font-size:13.0px; fill:rgb(0,0,0); stroke:none; baseline-shift:-13.0px; ">
   (0,n)
</text>
<polygon points=" 433.0,661.0 425.0,658.0 429.0,661.0 425.0,665.0 " style="fill:rgb(0,0,0); stroke:rgb(0,0,0); stroke-width:1.0px;"/>
<rect x="728.5px" y="741.5px" width="56.0px" height="30.0px" rx="11.0px" ry="11.0px" style="fill:rgb(255,255,255); stroke:rgb(255,255,255); stroke-width:1.0px;"/>
<text transform="translate(742.0,759.0), rotate(-0.0)" x="0px" y="0px" textLength="28.0px"
 style="font-family:Arial; font-size:10.0px; text-decoration:underline; fill:rgb(0,0,0); stroke:none; ">
   Name
</text>
<path d="M 758.0 707.0 L 758.0 737.0" style="fill:none; stroke:rgb(219,219,219); stroke-width:1.0px;"/>
<path d="M 758.0 706.0 L 758.0 736.0" style="fill:none; stroke:rgb(219,219,219); stroke-width:1.0px;"/>
<path d="M 757.0 706.0 L 757.0 736.0" style="fill:none; stroke:rgb(169,169,169); stroke-width:1.0px;"/>
<path d="M 757.0 705.0 L 757.0 735.0" style="fill:none; stroke:rgb(169,169,169); stroke-width:1.0px;"/>
<path d="M 756.0 705.0 L 756.0 735.0" style="fill:none; stroke:rgb(0,0,0); stroke-width:1.0px;"/>
<rect x="803.5px" y="741.5px" width="57.0px" height="30.0px" rx="11.0px" ry="11.0px" style="fill:rgb(255,255,255); stroke:rgb(255,255,255); stroke-width:1.0px;"/>
<text transform="translate(814.0,759.0), rotate(-0.0)" x="0px" y="0px" textLength="36.0px"
 style="font-family:Arial; font-size:10.0px; text-decoration:underline; fill:rgb(0,0,0); stroke:none; ">
   Address
</text>
<path d="M 833.0 707.0 L 833.0 737.0" style="fill:none; stroke:rgb(219,219,219); stroke-width:1.0px;"/>
<path d="M 833.0 706.0 L 833.0 736.0" style="fill:none; stroke:rgb(219,219,219); stroke-width:1.0px;"/>
<path d="M 832.0 706.0 L 832.0 736.0" style="fill:none; stroke:rgb(169,169,169); stroke-width:1.0px;"/>
<path d="M 832.0 705.0 L 832.0 735.0" style="fill:none; stroke:rgb(169,169,169); stroke-width:1.0px;"/>
<path d="M 831.0 705.0 L 831.0 735.0" style="fill:none; stroke:rgb(0,0,0); stroke-width:1.0px;"/>
<rect x="463.5px" y="401.5px" width="57.0px" height="30.0px" rx="11.0px" ry="11.0px" style="fill:rgb(255,255,255); stroke:rgb(255,255,255); stroke-width:1.0px;"/>
<text transform="translate(473.0,419.0), rotate(-0.0)" x="0px" y="0px" textLength="37.0px"
 style="font-family:Arial; font-size:10.0px; text-decoration:underline; fill:rgb(0,0,0); stroke:none; ">
   EventID
</text>
<path d="M 493.0 469.0 L 493.0 439.0" style="fill:none; stroke:rgb(219,219,219); stroke-width:1.0px;"/>
<path d="M 493.0 468.0 L 493.0 438.0" style="fill:none; stroke:rgb(219,219,219); stroke-width:1.0px;"/>
<path d="M 492.0 468.0 L 492.0 438.0" style="fill:none; stroke:rgb(169,169,169); stroke-width:1.0px;"/>
<path d="M 492.0 467.0 L 492.0 437.0" style="fill:none; stroke:rgb(169,169,169); stroke-width:1.0px;"/>
<path d="M 491.0 467.0 L 491.0 437.0" style="fill:none; stroke:rgb(0,0,0); stroke-width:1.0px;"/>
<rect x="671.5px" y="174.5px" width="57.0px" height="30.0px" rx="11.0px" ry="11.0px" style="fill:rgb(255,255,255); stroke:rgb(255,255,255); stroke-width:1.0px;"/>
<text transform="translate(685.0,193.0), rotate(-0.0)" x="0px" y="0px" textLength="28.0px"
 style="font-family:Arial; font-size:10.0px; text-decoration:underline; fill:rgb(0,0,0); stroke:none; ">
   Name
</text>
<path d="M 701.0 242.0 L 701.0 212.0" style="fill:none; stroke:rgb(219,219,219); stroke-width:1.0px;"/>
<path d="M 701.0 241.0 L 701.0 211.0" style="fill:none; stroke:rgb(219,219,219); stroke-width:1.0px;"/>
<path d="M 700.0 241.0 L 700.0 211.0" style="fill:none; stroke:rgb(169,169,169); stroke-width:1.0px;"/>
<path d="M 700.0 240.0 L 700.0 210.0" style="fill:none; stroke:rgb(169,169,169); stroke-width:1.0px;"/>
<path d="M 699.0 240.0 L 699.0 210.0" style="fill:none; stroke:rgb(0,0,0); stroke-width:1.0px;"/>
<rect x="822.5px" y="193.5px" width="57.0px" height="30.0px" rx="11.0px" ry="11.0px" style="fill:rgb(255,255,255); stroke:rgb(255,255,255); stroke-width:1.0px;"/>
<text transform="translate(836.0,211.0), rotate(-0.0)" x="0px" y="0px" textLength="28.0px"
 style="font-family:Arial; font-size:10.0px; text-decoration:underline; fill:rgb(0,0,0); stroke:none; ">
   Name
</text>
<rect x="917.5px" y="193.5px" width="56.0px" height="30.0px" rx="11.0px" ry="11.0px" style="fill:rgb(255,255,255); stroke:rgb(255,255,255); stroke-width:1.0px;"/>
<text transform="translate(927.0,211.0), rotate(-0.0)" x="0px" y="0px" textLength="36.0px"
 style="font-family:Arial; font-size:10.0px; text-decoration:underline; fill:rgb(0,0,0); stroke:none; ">
   Address
</text>
<path d="M 852.0 242.0 L 852.0 222.0" style="fill:none; stroke:rgb(219,219,219); stroke-width:1.0px;"/>
<path d="M 852.0 241.0 L 852.0 221.0" style="fill:none; stroke:rgb(219,219,219); stroke-width:1.0px;"/>
<path d="M 851.0 241.0 L 851.0 221.0" style="fill:none; stroke:rgb(169,169,169); stroke-width:1.0px;"/>
<path d="M 851.0 240.0 L 851.0 220.0" style="fill:none; stroke:rgb(169,169,169); stroke-width:1.0px;"/>
<path d="M 850.0 240.0 L 850.0 220.0" style="fill:none; stroke:rgb(0,0,0); stroke-width:1.0px;"/>
<path d="M 947.0 242.0 L 947.0 222.0" style="fill:none; stroke:rgb(219,219,219); stroke-width:1.0px;"/>
<path d="M 947.0 241.0 L 947.0 221.0" style="fill:none; stroke:rgb(219,219,219); stroke-width:1.0px;"/>
<path d="M 946.0 241.0 L 946.0 221.0" style="fill:none; stroke:rgb(169,169,169); stroke-width:1.0px;"/>
<path d="M 946.0 240.0 L 946.0 220.0" style="fill:none; stroke:rgb(169,169,169); stroke-width:1.0px;"/>
<path d="M 945.0 240.0 L 945.0 220.0" style="fill:none; stroke:rgb(0,0,0); stroke-width:1.0px;"/>
<rect x="1200.5px" y="741.5px" width="57.0px" height="30.0px" rx="11.0px" ry="11.0px" style="fill:rgb(255,255,255); stroke:rgb(255,255,255); stroke-width:1.0px;"/>
<text transform="translate(1214.0,759.0), rotate(-0.0)" x="0px" y="0px" textLength="28.0px"
 style="font-family:Arial; font-size:10.0px; text-decoration:underline; fill:rgb(0,0,0); stroke:none; ">
   Name
</text>
<path d="M 1230.0 707.0 L 1230.0 737.0" style="fill:none; stroke:rgb(219,219,219); stroke-width:1.0px;"/>
<path d="M 1230.0 706.0 L 1230.0 736.0" style="fill:none; stroke:rgb(219,219,219); stroke-width:1.0px;"/>
<path d="M 1229.0 706.0 L 1229.0 736.0" style="fill:none; stroke:rgb(169,169,169); stroke-width:1.0px;"/>
<path d="M 1229.0 705.0 L 1229.0 735.0" style="fill:none; stroke:rgb(169,169,169); stroke-width:1.0px;"/>
<path d="M 1228.0 705.0 L 1228.0 735.0" style="fill:none; stroke:rgb(0,0,0); stroke-width:1.0px;"/>
<rect x="123.5px" y="816.5px" width="57.0px" height="31.0px" rx="11.0px" ry="11.0px" style="fill:rgb(255,255,255); stroke:rgb(255,255,255); stroke-width:1.0px;"/>
<text transform="translate(133.0,835.0), rotate(-0.0)" x="0px" y="0px" textLength="36.0px"
 style="font-family:Arial; font-size:10.0px; text-decoration:underline; fill:rgb(0,0,0); stroke:none; ">
   Address
</text>
<path d="M 204.0 833.0 L 187.0 833.0" style="fill:none; stroke:rgb(219,219,219); stroke-width:1.0px;"/>
<path d="M 204.0 832.0 L 187.0 832.0" style="fill:none; stroke:rgb(219,219,219); stroke-width:1.0px;"/>
<path d="M 203.0 832.0 L 186.0 832.0" style="fill:none; stroke:rgb(169,169,169); stroke-width:1.0px;"/>
<path d="M 203.0 831.0 L 186.0 831.0" style="fill:none; stroke:rgb(169,169,169); stroke-width:1.0px;"/>
<path d="M 202.0 831.0 L 185.0 831.0" style="fill:none; stroke:rgb(0,0,0); stroke-width:1.0px;"/>
<rect x="1257.5px" y="741.5px" width="56.0px" height="30.0px" rx="11.0px" ry="11.0px" style="fill:rgb(255,255,255); stroke:rgb(255,255,255); stroke-width:1.0px;"/>
<text transform="translate(1275.0,759.0), rotate(-0.0)" x="0px" y="0px" textLength="21.0px"
 style="font-family:Arial; font-size:10.0px; text-decoration:underline; fill:rgb(0,0,0); stroke:none; ">
   Line
</text>
<path d="M 1287.0 707.0 L 1287.0 737.0" style="fill:none; stroke:rgb(219,219,219); stroke-width:1.0px;"/>
<path d="M 1287.0 706.0 L 1287.0 736.0" style="fill:none; stroke:rgb(219,219,219); stroke-width:1.0px;"/>
<path d="M 1286.0 706.0 L 1286.0 736.0" style="fill:none; stroke:rgb(169,169,169); stroke-width:1.0px;"/>
<path d="M 1286.0 705.0 L 1286.0 735.0" style="fill:none; stroke:rgb(169,169,169); stroke-width:1.0px;"/>
<path d="M 1285.0 705.0 L 1285.0 735.0" style="fill:none; stroke:rgb(0,0,0); stroke-width:1.0px;"/>
<rect x="1098.5px" y="323.5px" width="151.0px" height="76.0px" rx="0.0px" ry="0.0px" style="fill:none; stroke:rgb(219,219,219); stroke-width:1.0px;"/>
<rect x="1098.5px" y="322.5px" width="151.0px" height="76.0px" rx="0.0px" ry="0.0px" style="fill:none; stroke:rgb(219,219,219); stroke-width:1.0px;"/>
<rect x="1097.5px" y="322.5px" width="151.0px" height="76.0px" rx="0.0px" ry="0.0px" style="fill:none; stroke:rgb(169,169,169); stroke-width:1.0px;"/>
<rect x="1097.5px" y="321.5px" width="151.0px" height="76.0px" rx="0.0px" ry="0.0px" style="fill:none; stroke:rgb(169,169,169); stroke-width:1.0px;"/>
<rect x="1096.5px" y="321.5px" width="151.0px" height="76.0px" rx="0.0px" ry="0.0px" style="fill:rgb(255,255,255); stroke:rgb(0,0,0); stroke-width:1.0px;"/>
<text transform="translate(1125.0,351.0), rotate(-0.0)" x="0px" y="0px" textLength="93.0px"
 style="font-family:Arial; font-size:13.0px; fill:rgb(0,0,0); stroke:none; baseline-shift:-13.0px; ">
   OPENING-TIME
</text>
<rect x="1087.5px" y="268.5px" width="56.0px" height="31.0px" rx="11.0px" ry="11.0px" style="fill:rgb(255,255,255); stroke:rgb(255,255,255); stroke-width:1.0px;"/>
<text transform="translate(1094.0,287.0), rotate(-0.0)" x="0px" y="0px" textLength="42.0px"
 style="font-family:Arial; font-size:10.0px; text-decoration:underline; fill:rgb(0,0,0); stroke:none; ">
   Weekday
</text>
<rect x="1143.5px" y="268.5px" width="57.0px" height="31.0px" rx="11.0px" ry="11.0px" style="fill:rgb(255,255,255); stroke:rgb(255,255,255); stroke-width:1.0px;"/>
<text transform="translate(1159.0,287.0), rotate(-0.0)" x="0px" y="0px" textLength="26.0px"
 style="font-family:Arial; font-size:10.0px; text-decoration:underline; fill:rgb(0,0,0); stroke:none; ">
   Open
</text>
<rect x="1200.5px" y="268.5px" width="57.0px" height="31.0px" rx="11.0px" ry="11.0px" style="fill:rgb(255,255,255); stroke:rgb(255,255,255); stroke-width:1.0px;"/>
<text transform="translate(1215.0,287.0), rotate(-0.0)" x="0px" y="0px" textLength="26.0px"
 style="font-family:Arial; font-size:10.0px; text-decoration:underline; fill:rgb(0,0,0); stroke:none; ">
   Close
</text>
<path d="M 1230.0 318.0 L 1230.0 298.0" style="fill:none; stroke:rgb(219,219,219); stroke-width:1.0px;"/>
<path d="M 1230.0 317.0 L 1230.0 297.0" style="fill:none; stroke:rgb(219,219,219); stroke-width:1.0px;"/>
<path d="M 1229.0 317.0 L 1229.0 297.0" style="fill:none; stroke:rgb(169,169,169); stroke-width:1.0px;"/>
<path d="M 1229.0 316.0 L 1229.0 296.0" style="fill:none; stroke:rgb(169,169,169); stroke-width:1.0px;"/>
<path d="M 1228.0 316.0 L 1228.0 296.0" style="fill:none; stroke:rgb(0,0,0); stroke-width:1.0px;"/>
<path d="M 1174.0 318.0 L 1174.0 306.0" style="fill:none; stroke:rgb(219,219,219); stroke-width:1.0px;"/>
<path d="M 1174.0 317.0 L 1174.0 305.0" style="fill:none; stroke:rgb(219,219,219); stroke-width:1.0px;"/>
<path d="M 1173.0 317.0 L 1173.0 305.0" style="fill:none; stroke:rgb(169,169,169); stroke-width:1.0px;"/>
<path d="M 1173.0 316.0 L 1173.0 304.0" style="fill:none; stroke:rgb(169,169,169); stroke-width:1.0px;"/>
<path d="M 1172.0 316.0 L 1172.0 304.0" style="fill:none; stroke:rgb(0,0,0); stroke-width:1.0px;"/>
<path d="M 1117.0 318.0 L 1117.0 298.0" style="fill:none; stroke:rgb(219,219,219); stroke-width:1.0px;"/>
<path d="M 1117.0 317.0 L 1117.0 297.0" style="fill:none; stroke:rgb(219,219,219); stroke-width:1.0px;"/>
<path d="M 1116.0 317.0 L 1116.0 297.0" style="fill:none; stroke:rgb(169,169,169); stroke-width:1.0px;"/>
<path d="M 1116.0 316.0 L 1116.0 296.0" style="fill:none; stroke:rgb(169,169,169); stroke-width:1.0px;"/>
<path d="M 1115.0 316.0 L 1115.0 296.0" style="fill:none; stroke:rgb(0,0,0); stroke-width:1.0px;"/>
<polygon points=" 1121.0,512.0 1174.0,552.0 1227.0,512.0 1174.0,473.0 " style="fill:none; stroke:rgb(219,219,219); stroke-width:1.0px;"/>
<polygon points=" 1121.0,511.0 1174.0,551.0 1227.0,511.0 1174.0,472.0 " style="fill:none; stroke:rgb(219,219,219); stroke-width:1.0px;"/>
<polygon points=" 1120.0,511.0 1173.0,551.0 1226.0,511.0 1173.0,472.0 " style="fill:none; stroke:rgb(169,169,169); stroke-width:1.0px;"/>
<polygon points=" 1120.0,510.0 1173.0,550.0 1226.0,510.0 1173.0,471.0 " style="fill:none; stroke:rgb(169,169,169); stroke-width:1.0px;"/>
<polygon points=" 1119.0,510.0 1172.0,550.0 1225.0,510.0 1172.0,471.0 " style="fill:rgb(255,255,255); stroke:rgb(0,0,0); stroke-width:1.0px;"/>
<text transform="translate(1153.0,502.0), rotate(-0.0)" x="0px" y="0px" textLength="38.0px"
 style="font-family:Arial; font-size:13.0px; fill:rgb(0,0,0); stroke:none; baseline-shift:-13.0px; ">
   Opens
</text>
<path d="M 1113.0 534.0 L 875.0 629.0" style="fill:none; stroke:rgb(0,0,0); stroke-width:1.0px;"/>
<text transform="translate(1104.0,543.0), rotate(-0.0)" x="0px" y="0px" textLength="15.0px"
 style="font-family:Arial; font-size:13.0px; fill:rgb(0,0,0); stroke:none; baseline-shift:-13.0px; ">
   (7)
</text>
<polygon points=" 875.0,629.0 883.0,630.0 878.0,627.0 881.0,622.0 " style="fill:rgb(0,0,0); stroke:rgb(0,0,0); stroke-width:1.0px;"/>
<path d="M 1172.0 465.0 L 1172.0 403.0" style="fill:none; stroke:rgb(0,0,0); stroke-width:1.0px;"/>
<text transform="translate(1174.0,449.0), rotate(-0.0)" x="0px" y="0px" textLength="26.0px"
 style="font-family:Arial; font-size:13.0px; fill:rgb(0,0,0); stroke:none; baseline-shift:-13.0px; ">
   (0,n)
</text>
<polygon points=" 1172.0,403.0 1168.0,410.0 1172.0,406.0 1175.0,410.0 " style="fill:rgb(0,0,0); stroke:rgb(0,0,0); stroke-width:1.0px;"/>
</g>
</svg>
