<?xml version="1.0" encoding="UTF-8" standalone="no"?>
<svg width="2996.0px" height="1497.0px" version="1.1" xmlns="http://www.w3.org/2000/svg" xmlns:xlink="http://www.w3.org/1999/xlink">
<g>
<rect x="0.0px" y="0.0px" width="2996.0px" height="1497.0px" rx="0.0px" ry="0.0px" style="fill:rgb(255,255,255);"/>
<rect x="1665.5px" y="1022.5px" width="151.0px" height="76.0px" rx="0.0px" ry="0.0px" style="fill:none; stroke:rgb(219,219,219); stroke-width:1.0px;"/>
<rect x="1665.5px" y="1021.5px" width="151.0px" height="76.0px" rx="0.0px" ry="0.0px" style="fill:none; stroke:rgb(219,219,219); stroke-width:1.0px;"/>
<rect x="1664.5px" y="1021.5px" width="151.0px" height="76.0px" rx="0.0px" ry="0.0px" style="fill:none; stroke:rgb(169,169,169); stroke-width:1.0px;"/>
<rect x="1664.5px" y="1020.5px" width="151.0px" height="76.0px" rx="0.0px" ry="0.0px" style="fill:none; stroke:rgb(169,169,169); stroke-width:1.0px;"/>
<rect x="1663.5px" y="1020.5px" width="151.0px" height="76.0px" rx="0.0px" ry="0.0px" style="fill:rgb(255,255,255); stroke:rgb(0,0,0); stroke-width:1.0px;"/>
<text transform="translate(1701.0,1050.0), rotate(-0.0)" x="0px" y="0px" textLength="76.0px"
 style="font-family:Arial; font-size:13.0px; fill:rgb(0,0,0); stroke:none; baseline-shift:-13.0px; ">
   EQUIPMENT
</text>
<rect x="1325.5px" y="474.5px" width="151.0px" height="76.0px" rx="0.0px" ry="0.0px" style="fill:none; stroke:rgb(219,219,219); stroke-width:1.0px;"/>
<rect x="1325.5px" y="473.5px" width="151.0px" height="76.0px" rx="0.0px" ry="0.0px" style="fill:none; stroke:rgb(219,219,219); stroke-width:1.0px;"/>
<rect x="1324.5px" y="473.5px" width="151.0px" height="76.0px" rx="0.0px" ry="0.0px" style="fill:none; stroke:rgb(178,034,034); stroke-width:1.0px;"/>
<rect x="1324.5px" y="472.5px" width="151.0px" height="76.0px" rx="0.0px" ry="0.0px" style="fill:none; stroke:rgb(178,034,034); stroke-width:1.0px;"/>
<rect x="1323.5px" y="472.5px" width="151.0px" height="76.0px" rx="0.0px" ry="0.0px" style="fill:rgb(255,255,255); stroke:rgb(178,034,034); stroke-width:1.0px;"/>
<text transform="translate(1352.0,502.0), rotate(-0.0)" x="0px" y="0px" textLength="94.0px"
 style="font-family:Arial; font-size:13.0px; fill:rgb(0,0,0); stroke:none; baseline-shift:-13.0px; ">
   COFFEE-SHOP
</text>
<rect x="758.5px" y="852.5px" width="151.0px" height="76.0px" rx="0.0px" ry="0.0px" style="fill:none; stroke:rgb(219,219,219); stroke-width:1.0px;"/>
<rect x="758.5px" y="851.5px" width="151.0px" height="76.0px" rx="0.0px" ry="0.0px" style="fill:none; stroke:rgb(219,219,219); stroke-width:1.0px;"/>
<rect x="757.5px" y="851.5px" width="151.0px" height="76.0px" rx="0.0px" ry="0.0px" style="fill:none; stroke:rgb(169,169,169); stroke-width:1.0px;"/>
<rect x="757.5px" y="850.5px" width="151.0px" height="76.0px" rx="0.0px" ry="0.0px" style="fill:none; stroke:rgb(169,169,169); stroke-width:1.0px;"/>
<rect x="756.5px" y="850.5px" width="151.0px" height="76.0px" rx="0.0px" ry="0.0px" style="fill:rgb(255,255,255); stroke:rgb(0,0,0); stroke-width:1.0px;"/>
<text transform="translate(814.0,880.0), rotate(-0.0)" x="0px" y="0px" textLength="36.0px"
 style="font-family:Arial; font-size:13.0px; fill:rgb(0,0,0); stroke:none; baseline-shift:-13.0px; ">
   BEAN
</text>
<polygon points=" 554.0,890.0 607.0,930.0 660.0,890.0 607.0,851.0 " style="fill:none; stroke:rgb(219,219,219); stroke-width:1.0px;"/>
<polygon points=" 554.0,889.0 607.0,929.0 660.0,889.0 607.0,850.0 " style="fill:none; stroke:rgb(219,219,219); stroke-width:1.0px;"/>
<polygon points=" 553.0,889.0 606.0,929.0 659.0,889.0 606.0,850.0 " style="fill:none; stroke:rgb(169,169,169); stroke-width:1.0px;"/>
<polygon points=" 553.0,888.0 606.0,928.0 659.0,888.0 606.0,849.0 " style="fill:none; stroke:rgb(169,169,169); stroke-width:1.0px;"/>
<polygon points=" 552.0,888.0 605.0,928.0 658.0,888.0 605.0,849.0 " style="fill:rgb(255,255,255); stroke:rgb(0,0,0); stroke-width:1.0px;"/>
<text transform="translate(572.0,880.0), rotate(-0.0)" x="0px" y="0px" textLength="66.0px"
 style="font-family:Arial; font-size:13.0px; fill:rgb(0,0,0); stroke:none; baseline-shift:-13.0px; ">
   consists_of
</text>
<path d="M 663.0 888.0 L 750.0 888.0" style="fill:none; stroke:rgb(0,0,0); stroke-width:1.0px;"/>
<text transform="translate(658.0,895.0), rotate(-0.0)" x="0px" y="0px" textLength="26.0px"
 style="font-family:Arial; font-size:13.0px; fill:rgb(0,0,0); stroke:none; baseline-shift:-13.0px; ">
   (0,n)
</text>
<polygon points=" 750.0,888.0 743.0,884.0 746.0,888.0 743.0,892.0 " style="fill:rgb(0,0,0); stroke:rgb(0,0,0); stroke-width:1.0px;"/>
<polygon points=" 1045.0,758.0 1098.0,798.0 1151.0,758.0 1098.0,718.0 " style="fill:none; stroke:rgb(219,219,219); stroke-width:1.0px;"/>
<polygon points=" 1045.0,757.0 1098.0,797.0 1151.0,757.0 1098.0,717.0 " style="fill:none; stroke:rgb(219,219,219); stroke-width:1.0px;"/>
<polygon points=" 1044.0,757.0 1097.0,797.0 1150.0,757.0 1097.0,717.0 " style="fill:none; stroke:rgb(169,169,169); stroke-width:1.0px;"/>
<polygon points=" 1044.0,756.0 1097.0,796.0 1150.0,756.0 1097.0,716.0 " style="fill:none; stroke:rgb(169,169,169); stroke-width:1.0px;"/>
<polygon points=" 1043.0,756.0 1096.0,796.0 1149.0,756.0 1096.0,716.0 " style="fill:rgb(255,255,255); stroke:rgb(0,0,0); stroke-width:1.0px;"/>
<text transform="translate(1078.0,748.0), rotate(-0.0)" x="0px" y="0px" textLength="37.0px"
 style="font-family:Arial; font-size:13.0px; fill:rgb(0,0,0); stroke:none; baseline-shift:-13.0px; ">
   serves
</text>
<path d="M 1155.0 756.0 L 1285.0 756.0 L 1285.0 529.0 L 1317.0 529.0" style="fill:none; stroke:rgb(0,0,0); stroke-width:1.0px;"/>
<text transform="translate(1149.0,763.0), rotate(-0.0)" x="0px" y="0px" textLength="26.0px"
 style="font-family:Arial; font-size:13.0px; fill:rgb(0,0,0); stroke:none; baseline-shift:-13.0px; ">
   (0,n)
</text>
<polygon points=" 1317.0,529.0 1310.0,525.0 1313.0,529.0 1310.0,533.0 " style="fill:rgb(0,0,0); stroke:rgb(0,0,0); stroke-width:1.0px;"/>
<polygon points=" 1480.0,739.0 1533.0,779.0 1586.0,739.0 1533.0,699.0 " style="fill:none; stroke:rgb(219,219,219); stroke-width:1.0px;"/>
<polygon points=" 1480.0,738.0 1533.0,778.0 1586.0,738.0 1533.0,698.0 " style="fill:none; stroke:rgb(219,219,219); stroke-width:1.0px;"/>
<polygon points=" 1479.0,738.0 1532.0,778.0 1585.0,738.0 1532.0,698.0 " style="fill:none; stroke:rgb(169,169,169); stroke-width:1.0px;"/>
<polygon points=" 1479.0,737.0 1532.0,777.0 1585.0,737.0 1532.0,697.0 " style="fill:none; stroke:rgb(169,169,169); stroke-width:1.0px;"/>
<polygon points=" 1478.0,737.0 1531.0,777.0 1584.0,737.0 1531.0,697.0 " style="fill:rgb(255,255,255); stroke:rgb(0,0,0); stroke-width:1.0px;"/>
<text transform="translate(1507.0,729.0), rotate(-0.0)" x="0px" y="0px" textLength="48.0px"
 style="font-family:Arial; font-size:13.0px; fill:rgb(0,0,0); stroke:none; baseline-shift:-13.0px; ">
   supplies
</text>
<path d="M 1589.0 748.0 L 1657.0 760.0" style="fill:none; stroke:rgb(0,0,0); stroke-width:1.0px;"/>
<text transform="translate(1581.0,756.0), rotate(-0.0)" x="0px" y="0px" textLength="26.0px"
 style="font-family:Arial; font-size:13.0px; fill:rgb(0,0,0); stroke:none; baseline-shift:-13.0px; ">
   (0,n)
</text>
<polygon points=" 1657.0,760.0 1651.0,755.0 1654.0,759.0 1649.0,762.0 " style="fill:rgb(0,0,0); stroke:rgb(0,0,0); stroke-width:1.0px;"/>
<polygon points=" 1045.0,531.0 1098.0,571.0 1151.0,531.0 1098.0,491.0 " style="fill:none; stroke:rgb(219,219,219); stroke-width:1.0px;"/>
<polygon points=" 1045.0,530.0 1098.0,570.0 1151.0,530.0 1098.0,490.0 " style="fill:none; stroke:rgb(219,219,219); stroke-width:1.0px;"/>
<polygon points=" 1044.0,530.0 1097.0,570.0 1150.0,530.0 1097.0,490.0 " style="fill:none; stroke:rgb(169,169,169); stroke-width:1.0px;"/>
<polygon points=" 1044.0,529.0 1097.0,569.0 1150.0,529.0 1097.0,489.0 " style="fill:none; stroke:rgb(169,169,169); stroke-width:1.0px;"/>
<polygon points=" 1043.0,529.0 1096.0,569.0 1149.0,529.0 1096.0,489.0 " style="fill:rgb(255,255,255); stroke:rgb(0,0,0); stroke-width:1.0px;"/>
<text transform="translate(1072.0,521.0), rotate(-0.0)" x="0px" y="0px" textLength="48.0px"
 style="font-family:Arial; font-size:13.0px; fill:rgb(0,0,0); stroke:none; baseline-shift:-13.0px; ">
   includes
</text>
<path d="M 1096.0 574.0 L 1096.0 711.0" style="fill:none; stroke:rgb(0,0,0); stroke-width:1.0px;"/>
<text transform="translate(1068.0,574.0), rotate(-0.0)" x="0px" y="0px" textLength="26.0px"
 style="font-family:Arial; font-size:13.0px; fill:rgb(0,0,0); stroke:none; baseline-shift:-13.0px; ">
   (0,n)
</text>
<polygon points=" 1096.0,711.0 1100.0,703.0 1096.0,707.0 1092.0,703.0 " style="fill:rgb(0,0,0); stroke:rgb(0,0,0); stroke-width:1.0px;"/>
<polygon points=" 1253.0,890.0 1306.0,930.0 1359.0,890.0 1306.0,851.0 " style="fill:none; stroke:rgb(219,219,219); stroke-width:1.0px;"/>
<polygon points=" 1253.0,889.0 1306.0,929.0 1359.0,889.0 1306.0,850.0 " style="fill:none; stroke:rgb(219,219,219); stroke-width:1.0px;"/>
<polygon points=" 1252.0,889.0 1305.0,929.0 1358.0,889.0 1305.0,850.0 " style="fill:none; stroke:rgb(169,169,169); stroke-width:1.0px;"/>
<polygon points=" 1252.0,888.0 1305.0,928.0 1358.0,888.0 1305.0,849.0 " style="fill:none; stroke:rgb(169,169,169); stroke-width:1.0px;"/>
<polygon points=" 1251.0,888.0 1304.0,928.0 1357.0,888.0 1304.0,849.0 " style="fill:rgb(255,255,255); stroke:rgb(0,0,0); stroke-width:1.0px;"/>
<text transform="translate(1281.0,880.0), rotate(-0.0)" x="0px" y="0px" textLength="47.0px"
 style="font-family:Arial; font-size:13.0px; fill:rgb(0,0,0); stroke:none; baseline-shift:-13.0px; ">
   provides
</text>
<path d="M 1315.0 843.0 L 1387.0 554.0" style="fill:none; stroke:rgb(0,0,0); stroke-width:1.0px;"/>
<text transform="translate(1319.0,831.0), rotate(-0.0)" x="0px" y="0px" textLength="26.0px"
 style="font-family:Arial; font-size:13.0px; fill:rgb(0,0,0); stroke:none; baseline-shift:-13.0px; ">
   (0,n)
</text>
<polygon points=" 1387.0,554.0 1382.0,560.0 1387.0,557.0 1389.0,562.0 " style="fill:rgb(0,0,0); stroke:rgb(0,0,0); stroke-width:1.0px;"/>
<path d="M 1245.0 888.0 L 913.0 888.0" style="fill:none; stroke:rgb(0,0,0); stroke-width:1.0px;"/>
<text transform="translate(1225.0,865.0), rotate(-0.0)" x="0px" y="0px" textLength="26.0px"
 style="font-family:Arial; font-size:13.0px; fill:rgb(0,0,0); stroke:none; baseline-shift:-13.0px; ">
   (0,n)
</text>
<polygon points=" 913.0,888.0 920.0,892.0 917.0,888.0 920.0,884.0 " style="fill:rgb(0,0,0); stroke:rgb(0,0,0); stroke-width:1.0px;"/>
<rect x="1079.5px" y="1155.5px" width="151.0px" height="75.0px" rx="0.0px" ry="0.0px" style="fill:none; stroke:rgb(219,219,219); stroke-width:1.0px;"/>
<rect x="1079.5px" y="1154.5px" width="151.0px" height="75.0px" rx="0.0px" ry="0.0px" style="fill:none; stroke:rgb(219,219,219); stroke-width:1.0px;"/>
<rect x="1078.5px" y="1154.5px" width="151.0px" height="75.0px" rx="0.0px" ry="0.0px" style="fill:none; stroke:rgb(169,169,169); stroke-width:1.0px;"/>
<rect x="1078.5px" y="1153.5px" width="151.0px" height="75.0px" rx="0.0px" ry="0.0px" style="fill:none; stroke:rgb(169,169,169); stroke-width:1.0px;"/>
<rect x="1077.5px" y="1153.5px" width="151.0px" height="75.0px" rx="0.0px" ry="0.0px" style="fill:rgb(255,255,255); stroke:rgb(0,0,0); stroke-width:1.0px;"/>
<text transform="translate(1132.0,1183.0), rotate(-0.0)" x="0px" y="0px" textLength="43.0px"
 style="font-family:Arial; font-size:13.0px; fill:rgb(0,0,0); stroke:none; baseline-shift:-13.0px; ">
   BLEND
</text>
<polygon points=" 913.0,1041.0 966.0,1081.0 1019.0,1041.0 966.0,1002.0 " style="fill:none; stroke:rgb(219,219,219); stroke-width:1.0px;"/>
<polygon points=" 913.0,1040.0 966.0,1080.0 1019.0,1040.0 966.0,1001.0 " style="fill:none; stroke:rgb(219,219,219); stroke-width:1.0px;"/>
<polygon points=" 912.0,1040.0 965.0,1080.0 1018.0,1040.0 965.0,1001.0 " style="fill:none; stroke:rgb(169,169,169); stroke-width:1.0px;"/>
<polygon points=" 912.0,1039.0 965.0,1079.0 1018.0,1039.0 965.0,1000.0 " style="fill:none; stroke:rgb(169,169,169); stroke-width:1.0px;"/>
<polygon points=" 911.0,1039.0 964.0,1079.0 1017.0,1039.0 964.0,1000.0 " style="fill:rgb(255,255,255); stroke:rgb(0,0,0); stroke-width:1.0px;"/>
<text transform="translate(934.0,1031.0), rotate(-0.0)" x="0px" y="0px" textLength="60.0px"
 style="font-family:Arial; font-size:13.0px; fill:rgb(0,0,0); stroke:none; baseline-shift:-13.0px; ">
   composed
</text>
<path d="M 1020.0 1085.0 L 1098.0 1147.0" style="fill:none; stroke:rgb(0,0,0); stroke-width:1.0px;"/>
<text transform="translate(1023.0,1070.0), rotate(-0.0)" x="0px" y="0px" textLength="26.0px"
 style="font-family:Arial; font-size:13.0px; fill:rgb(0,0,0); stroke:none; baseline-shift:-13.0px; ">
   (2,n)
</text>
<polygon points=" 1098.0,1147.0 1095.0,1140.0 1095.0,1145.0 1090.0,1145.0 " style="fill:rgb(0,0,0); stroke:rgb(0,0,0); stroke-width:1.0px;"/>
<polygon points=" 1423.0,1004.0 1476.0,1043.0 1529.0,1004.0 1476.0,964.0 " style="fill:none; stroke:rgb(219,219,219); stroke-width:1.0px;"/>
<polygon points=" 1423.0,1003.0 1476.0,1042.0 1529.0,1003.0 1476.0,963.0 " style="fill:none; stroke:rgb(219,219,219); stroke-width:1.0px;"/>
<polygon points=" 1422.0,1003.0 1475.0,1042.0 1528.0,1003.0 1475.0,963.0 " style="fill:none; stroke:rgb(169,169,169); stroke-width:1.0px;"/>
<polygon points=" 1422.0,1002.0 1475.0,1041.0 1528.0,1002.0 1475.0,962.0 " style="fill:none; stroke:rgb(169,169,169); stroke-width:1.0px;"/>
<polygon points=" 1421.0,1002.0 1474.0,1041.0 1527.0,1002.0 1474.0,962.0 " style="fill:rgb(255,255,255); stroke:rgb(0,0,0); stroke-width:1.0px;"/>
<text transform="translate(1459.0,994.0), rotate(-0.0)" x="0px" y="0px" textLength="31.0px"
 style="font-family:Arial; font-size:13.0px; fill:rgb(0,0,0); stroke:none; baseline-shift:-13.0px; ">
   offers
</text>
<path d="M 1474.0 1047.0 L 1474.0 1191.0 L 1234.0 1191.0" style="fill:none; stroke:rgb(0,0,0); stroke-width:1.0px;"/>
<text transform="translate(1446.0,1047.0), rotate(-0.0)" x="0px" y="0px" textLength="26.0px"
 style="font-family:Arial; font-size:13.0px; fill:rgb(0,0,0); stroke:none; baseline-shift:-13.0px; ">
   (0,n)
</text>
<polygon points=" 1234.0,1191.0 1242.0,1194.0 1238.0,1191.0 1242.0,1187.0 " style="fill:rgb(0,0,0); stroke:rgb(0,0,0); stroke-width:1.0px;"/>
<path d="M 1504.0 692.0 L 1424.0 554.0" style="fill:none; stroke:rgb(0,0,0); stroke-width:1.0px;"/>
<text transform="translate(1500.0,670.0), rotate(-0.0)" x="0px" y="0px" textLength="26.0px"
 style="font-family:Arial; font-size:13.0px; fill:rgb(0,0,0); stroke:none; baseline-shift:-13.0px; ">
   (0,n)
</text>
<polygon points=" 1424.0,554.0 1424.0,562.0 1426.0,557.0 1431.0,558.0 " style="fill:rgb(0,0,0); stroke:rgb(0,0,0); stroke-width:1.0px;"/>
<path d="M 1467.0 956.0 L 1405.0 554.0" style="fill:none; stroke:rgb(0,0,0); stroke-width:1.0px;"/>
<text transform="translate(1468.0,938.0), rotate(-0.0)" x="0px" y="0px" textLength="26.0px"
 style="font-family:Arial; font-size:13.0px; fill:rgb(0,0,0); stroke:none; baseline-shift:-13.0px; ">
   (0,n)
</text>
<polygon points=" 1405.0,554.0 1403.0,562.0 1406.0,557.0 1410.0,561.0 " style="fill:rgb(0,0,0); stroke:rgb(0,0,0); stroke-width:1.0px;"/>
<polygon points=" 214.0,1438.0 267.0,1478.0 319.0,1438.0 267.0,1399.0 " style="fill:none; stroke:rgb(219,219,219); stroke-width:1.0px;"/>
<polygon points=" 214.0,1437.0 267.0,1477.0 319.0,1437.0 267.0,1398.0 " style="fill:none; stroke:rgb(219,219,219); stroke-width:1.0px;"/>
<polygon points=" 213.0,1437.0 266.0,1477.0 318.0,1437.0 266.0,1398.0 " style="fill:none; stroke:rgb(169,169,169); stroke-width:1.0px;"/>
<polygon points=" 213.0,1436.0 266.0,1476.0 318.0,1436.0 266.0,1397.0 " style="fill:none; stroke:rgb(169,169,169); stroke-width:1.0px;"/>
<polygon points=" 212.0,1436.0 265.0,1476.0 317.0,1436.0 265.0,1397.0 " style="fill:rgb(255,255,255); stroke:rgb(0,0,0); stroke-width:1.0px;"/>
<text transform="translate(238.0,1428.0), rotate(-0.0)" x="0px" y="0px" textLength="53.0px"
 style="font-family:Arial; font-size:13.0px; fill:rgb(0,0,0); stroke:none; baseline-shift:-13.0px; ">
   ARTICLE
</text>
<line x1="253.0px" y1="1344.0px" x2="280.0px" y2="1344.0px" style="stroke:rgb(219,219,219); stroke-width:3.0px;"/>
<line x1="267.0px" y1="1331.0px" x2="267.0px" y2="1357.0px" style="stroke:rgb(219,219,219); stroke-width:3.0px;"/>
<ellipse cx="267.5px" cy="1344.5px" rx="22.5px" ry="22.5px" style="fill:none; stroke:rgb(219,219,219); stroke-width:1.0px;"/>
<line x1="253.0px" y1="1343.0px" x2="280.0px" y2="1343.0px" style="stroke:rgb(219,219,219); stroke-width:3.0px;"/>
<line x1="267.0px" y1="1330.0px" x2="267.0px" y2="1356.0px" style="stroke:rgb(219,219,219); stroke-width:3.0px;"/>
<ellipse cx="267.5px" cy="1343.5px" rx="22.5px" ry="22.5px" style="fill:none; stroke:rgb(219,219,219); stroke-width:1.0px;"/>
<line x1="252.0px" y1="1343.0px" x2="279.0px" y2="1343.0px" style="stroke:rgb(169,169,169); stroke-width:3.0px;"/>
<line x1="266.0px" y1="1330.0px" x2="266.0px" y2="1356.0px" style="stroke:rgb(169,169,169); stroke-width:3.0px;"/>
<ellipse cx="266.5px" cy="1343.5px" rx="22.5px" ry="22.5px" style="fill:none; stroke:rgb(169,169,169); stroke-width:1.0px;"/>
<line x1="252.0px" y1="1342.0px" x2="279.0px" y2="1342.0px" style="stroke:rgb(169,169,169); stroke-width:3.0px;"/>
<line x1="266.0px" y1="1329.0px" x2="266.0px" y2="1355.0px" style="stroke:rgb(169,169,169); stroke-width:3.0px;"/>
<ellipse cx="266.5px" cy="1342.5px" rx="22.5px" ry="22.5px" style="fill:none; stroke:rgb(169,169,169); stroke-width:1.0px;"/>
<text transform="translate(224.0,1296.0), rotate(-0.0)" x="0px" y="0px" textLength="81.0px"
 style="font-family:Arial; font-size:13.0px; fill:rgb(0,0,0); stroke:none; baseline-shift:-13.0px; ">
   article_cluster
</text>
<line x1="251.0px" y1="1342.0px" x2="278.0px" y2="1342.0px" style="stroke:rgb(0,0,0); stroke-width:3.0px;"/>
<line x1="265.0px" y1="1329.0px" x2="265.0px" y2="1355.0px" style="stroke:rgb(0,0,0); stroke-width:3.0px;"/>
<ellipse cx="265.5px" cy="1342.5px" rx="22.5px" ry="22.5px" style="fill:none; stroke:rgb(0,0,0); stroke-width:1.0px;"/>
<rect x="1665.5px" y="739.5px" width="151.0px" height="76.0px" rx="0.0px" ry="0.0px" style="fill:none; stroke:rgb(219,219,219); stroke-width:1.0px;"/>
<rect x="1665.5px" y="738.5px" width="151.0px" height="76.0px" rx="0.0px" ry="0.0px" style="fill:none; stroke:rgb(219,219,219); stroke-width:1.0px;"/>
<rect x="1664.5px" y="738.5px" width="151.0px" height="76.0px" rx="0.0px" ry="0.0px" style="fill:none; stroke:rgb(169,169,169); stroke-width:1.0px;"/>
<rect x="1664.5px" y="737.5px" width="151.0px" height="76.0px" rx="0.0px" ry="0.0px" style="fill:none; stroke:rgb(169,169,169); stroke-width:1.0px;"/>
<rect x="1663.5px" y="737.5px" width="151.0px" height="76.0px" rx="0.0px" ry="0.0px" style="fill:rgb(255,255,255); stroke:rgb(0,0,0); stroke-width:1.0px;"/>
<text transform="translate(1675.0,759.0), rotate(-0.0)" x="0px" y="0px" textLength="127.0px"
 style="font-family:Arial; font-size:13.0px; fill:rgb(0,0,0); stroke:none; baseline-shift:-13.0px; ">
   EQUIPMENT_CATEG
</text>
<text transform="translate(1725.0,775.0), rotate(-0.0)" x="0px" y="0px" textLength="28.0px"
 style="font-family:Arial; font-size:13.0px; fill:rgb(0,0,0); stroke:none; baseline-shift:-13.0px; ">
   ORY
</text>
<polygon points=" 1518.0,909.0 1571.0,949.0 1623.0,909.0 1571.0,869.0 " style="fill:none; stroke:rgb(219,219,219); stroke-width:1.0px;"/>
<polygon points=" 1518.0,908.0 1571.0,948.0 1623.0,908.0 1571.0,868.0 " style="fill:none; stroke:rgb(219,219,219); stroke-width:1.0px;"/>
<polygon points=" 1517.0,908.0 1570.0,948.0 1622.0,908.0 1570.0,868.0 " style="fill:none; stroke:rgb(169,169,169); stroke-width:1.0px;"/>
<polygon points=" 1517.0,907.0 1570.0,947.0 1622.0,907.0 1570.0,867.0 " style="fill:none; stroke:rgb(169,169,169); stroke-width:1.0px;"/>
<polygon points=" 1516.0,907.0 1569.0,947.0 1621.0,907.0 1569.0,867.0 " style="fill:rgb(255,255,255); stroke:rgb(0,0,0); stroke-width:1.0px;"/>
<text transform="translate(1555.0,899.0), rotate(-0.0)" x="0px" y="0px" textLength="27.0px"
 style="font-family:Arial; font-size:13.0px; fill:rgb(0,0,0); stroke:none; baseline-shift:-13.0px; ">
   sells
</text>
<path d="M 1569.0 952.0 L 1569.0 964.0 L 1587.0 1020.0 L 1657.0 1038.0" style="fill:none; stroke:rgb(0,0,0); stroke-width:1.0px;"/>
<text transform="translate(1541.0,952.0), rotate(-0.0)" x="0px" y="0px" textLength="26.0px"
 style="font-family:Arial; font-size:13.0px; fill:rgb(0,0,0); stroke:none; baseline-shift:-13.0px; ">
   (0,n)
</text>
<polygon points=" 1657.0,1038.0 1651.0,1032.0 1654.0,1037.0 1649.0,1040.0 " style="fill:rgb(0,0,0); stroke:rgb(0,0,0); stroke-width:1.0px;"/>
<path d="M 1037.0 756.0 L 535.0 756.0" style="fill:none; stroke:rgb(0,0,0); stroke-width:1.0px;"/>
<text transform="translate(1017.0,733.0), rotate(-0.0)" x="0px" y="0px" textLength="26.0px"
 style="font-family:Arial; font-size:13.0px; fill:rgb(0,0,0); stroke:none; baseline-shift:-13.0px; ">
   (0,n)
</text>
<polygon points=" 535.0,756.0 542.0,760.0 539.0,756.0 542.0,752.0 " style="fill:rgb(0,0,0); stroke:rgb(0,0,0); stroke-width:1.0px;"/>
<path d="M 605.0 843.0 L 605.0 775.0 L 535.0 775.0" style="fill:none; stroke:rgb(0,0,0); stroke-width:1.0px;"/>
<text transform="translate(607.0,827.0), rotate(-0.0)" x="0px" y="0px" textLength="26.0px"
 style="font-family:Arial; font-size:13.0px; fill:rgb(0,0,0); stroke:none; baseline-shift:-13.0px; ">
   (1,n)
</text>
<polygon points=" 535.0,775.0 542.0,779.0 539.0,775.0 542.0,771.0 " style="fill:rgb(0,0,0); stroke:rgb(0,0,0); stroke-width:1.0px;"/>
<path d="M 293.0 1342.0 L 1739.0 1342.0 L 1739.0 1102.0" style="fill:none; stroke:rgb(0,0,0); stroke-width:1.0px;"/>
<polygon points=" 1739.0,1102.0 1735.0,1109.0 1739.0,1106.0 1742.0,1109.0 " style="fill:rgb(0,0,0); stroke:rgb(0,0,0); stroke-width:1.0px;"/>
<path d="M 293.0 1337.0 L 1071.0 1205.0" style="fill:none; stroke:rgb(0,0,0); stroke-width:1.0px;"/>
<polygon points=" 1071.0,1205.0 1064.0,1202.0 1068.0,1205.0 1065.0,1209.0 " style="fill:rgb(0,0,0); stroke:rgb(0,0,0); stroke-width:1.0px;"/>
<path d="M 294.0 1290.0 L 435.0 1039.0 L 750.0 919.0" style="fill:none; stroke:rgb(0,0,0); stroke-width:1.0px;"/>
<polygon points=" 750.0,919.0 742.0,918.0 747.0,921.0 745.0,925.0 " style="fill:rgb(0,0,0); stroke:rgb(0,0,0); stroke-width:1.0px;"/>
<path d="M 272.0 1290.0 L 321.0 945.0 L 423.0 799.0" style="fill:none; stroke:rgb(0,0,0); stroke-width:1.0px;"/>
<polygon points=" 423.0,799.0 416.0,804.0 421.0,802.0 422.0,808.0 " style="fill:rgb(0,0,0); stroke:rgb(0,0,0); stroke-width:1.0px;"/>
<polygon points=" 2028.0,777.0 2081.0,816.0 2134.0,777.0 2081.0,737.0 " style="fill:none; stroke:rgb(219,219,219); stroke-width:1.0px;"/>
<polygon points=" 2028.0,776.0 2081.0,815.0 2134.0,776.0 2081.0,736.0 " style="fill:none; stroke:rgb(219,219,219); stroke-width:1.0px;"/>
<polygon points=" 2027.0,776.0 2080.0,815.0 2133.0,776.0 2080.0,736.0 " style="fill:none; stroke:rgb(169,169,169); stroke-width:1.0px;"/>
<polygon points=" 2027.0,775.0 2080.0,814.0 2133.0,775.0 2080.0,735.0 " style="fill:none; stroke:rgb(169,169,169); stroke-width:1.0px;"/>
<polygon points=" 2026.0,775.0 2079.0,814.0 2132.0,775.0 2079.0,735.0 " style="fill:rgb(255,255,255); stroke:rgb(0,0,0); stroke-width:1.0px;"/>
<text transform="translate(2027.0,767.0), rotate(-0.0)" x="0px" y="0px" textLength="103.0px"
 style="font-family:Arial; font-size:13.0px; fill:rgb(0,0,0); stroke:none; baseline-shift:-13.0px; ">
   SUB-CATEGORY
</text>
<path d="M 2020.0 775.0 L 1820.0 775.0" style="fill:none; stroke:rgb(0,0,0); stroke-width:1.0px;"/>
<text transform="translate(2000.0,752.0), rotate(-0.0)" x="0px" y="0px" textLength="26.0px"
 style="font-family:Arial; font-size:13.0px; fill:rgb(0,0,0); stroke:none; baseline-shift:-13.0px; ">
   (0,1)
</text>
<text transform="translate(1877.0,761.0), rotate(-0.0)" x="0px" y="0px" textLength="98.0px"
 style="font-family:Arial; font-size:10.0px; fill:rgb(0,0,0); stroke:none; baseline-shift:-10.0px; ">
   has_parent_category
</text>
<polygon points=" 1820.0,775.0 1827.0,779.0 1824.0,775.0 1827.0,771.0 " style="fill:rgb(0,0,0); stroke:rgb(0,0,0); stroke-width:1.0px;"/>
<path d="M 2020.0 794.0 L 1820.0 794.0" style="fill:none; stroke:rgb(0,0,0); stroke-width:1.0px;"/>
<text transform="translate(2000.0,771.0), rotate(-0.0)" x="0px" y="0px" textLength="26.0px"
 style="font-family:Arial; font-size:13.0px; fill:rgb(0,0,0); stroke:none; baseline-shift:-13.0px; ">
   (0,n)
</text>
<text transform="translate(1833.0,780.0), rotate(-0.0)" x="0px" y="0px" textLength="92.0px"
 style="font-family:Arial; font-size:10.0px; fill:rgb(0,0,0); stroke:none; baseline-shift:-10.0px; ">
   has_sub_categories
</text>
<polygon points=" 1820.0,794.0 1827.0,797.0 1824.0,794.0 1827.0,790.0 " style="fill:rgb(0,0,0); stroke:rgb(0,0,0); stroke-width:1.0px;"/>
<path d="M 1531.0 862.0 L 1531.0 782.0" style="fill:none; stroke:rgb(0,0,0); stroke-width:1.0px;"/>
<text transform="translate(1533.0,846.0), rotate(-0.0)" x="0px" y="0px" textLength="26.0px"
 style="font-family:Arial; font-size:13.0px; fill:rgb(0,0,0); stroke:none; baseline-shift:-13.0px; ">
   (0,n)
</text>
<polygon points=" 1531.0,782.0 1527.0,790.0 1531.0,786.0 1534.0,790.0 " style="fill:rgb(0,0,0); stroke:rgb(0,0,0); stroke-width:1.0px;"/>
<path d="M 265.0 1391.0 L 265.0 1370.0" style="fill:none; stroke:rgb(0,0,0); stroke-width:1.0px;"/>
<polygon points=" 265.0,1370.0 261.0,1378.0 265.0,1374.0 268.0,1378.0 " style="fill:rgb(0,0,0); stroke:rgb(0,0,0); stroke-width:1.0px;"/>
<rect x="1408.5px" y="401.5px" width="57.0px" height="30.0px" rx="11.0px" ry="11.0px" style="fill:rgb(255,255,255); stroke:rgb(255,255,255); stroke-width:1.0px;"/>
<text transform="translate(1422.0,419.0), rotate(-0.0)" x="0px" y="0px" textLength="28.0px"
 style="font-family:Arial; font-size:10.0px; text-decoration:underline; fill:rgb(0,0,0); stroke:none; ">
   Name
</text>
<path d="M 1438.0 469.0 L 1438.0 439.0" style="fill:none; stroke:rgb(219,219,219); stroke-width:1.0px;"/>
<path d="M 1438.0 468.0 L 1438.0 438.0" style="fill:none; stroke:rgb(219,219,219); stroke-width:1.0px;"/>
<path d="M 1437.0 468.0 L 1437.0 438.0" style="fill:none; stroke:rgb(169,169,169); stroke-width:1.0px;"/>
<path d="M 1437.0 467.0 L 1437.0 437.0" style="fill:none; stroke:rgb(169,169,169); stroke-width:1.0px;"/>
<path d="M 1436.0 467.0 L 1436.0 437.0" style="fill:none; stroke:rgb(0,0,0); stroke-width:1.0px;"/>
<rect x="1313.5px" y="401.5px" width="57.0px" height="30.0px" rx="11.0px" ry="11.0px" style="fill:rgb(255,255,255); stroke:rgb(255,255,255); stroke-width:1.0px;"/>
<text transform="translate(1324.0,419.0), rotate(-0.0)" x="0px" y="0px" textLength="36.0px"
 style="font-family:Arial; font-size:10.0px; text-decoration:underline; fill:rgb(0,0,0); stroke:none; ">
   Address
</text>
<path d="M 1344.0 469.0 L 1344.0 439.0" style="fill:none; stroke:rgb(219,219,219); stroke-width:1.0px;"/>
<path d="M 1344.0 468.0 L 1344.0 438.0" style="fill:none; stroke:rgb(219,219,219); stroke-width:1.0px;"/>
<path d="M 1343.0 468.0 L 1343.0 438.0" style="fill:none; stroke:rgb(169,169,169); stroke-width:1.0px;"/>
<path d="M 1343.0 467.0 L 1343.0 437.0" style="fill:none; stroke:rgb(169,169,169); stroke-width:1.0px;"/>
<path d="M 1342.0 467.0 L 1342.0 437.0" style="fill:none; stroke:rgb(0,0,0); stroke-width:1.0px;"/>
<rect x="1861.5px" y="986.5px" width="57.0px" height="31.0px" rx="11.0px" ry="11.0px" style="fill:rgb(255,255,255); stroke:rgb(255,255,255); stroke-width:1.0px;"/>
<text transform="translate(1859.0,1005.0), rotate(-0.0)" x="0px" y="0px" textLength="62.0px"
 style="font-family:Arial; font-size:10.0px; text-decoration:underline; fill:rgb(0,0,0); stroke:none; ">
   Manufacturer
</text>
<rect x="1861.5px" y="1024.5px" width="57.0px" height="30.0px" rx="11.0px" ry="11.0px" style="fill:rgb(255,255,255); stroke:rgb(255,255,255); stroke-width:1.0px;"/>
<text transform="translate(1855.0,1043.0), rotate(-0.0)" x="0px" y="0px" textLength="70.0px"
 style="font-family:Arial; font-size:10.0px; text-decoration:underline; fill:rgb(0,0,0); stroke:none; ">
   Year_of_origin
</text>
<rect x="1861.5px" y="1062.5px" width="57.0px" height="30.0px" rx="11.0px" ry="11.0px" style="fill:rgb(255,255,255); stroke:rgb(255,255,255); stroke-width:1.0px;"/>
<text transform="translate(1876.0,1081.0), rotate(-0.0)" x="0px" y="0px" textLength="28.0px"
 style="font-family:Arial; font-size:10.0px; text-decoration:underline; fill:rgb(0,0,0); stroke:none; ">
   Name
</text>
<path d="M 1822.0 1030.0 L 1858.0 1016.0" style="fill:none; stroke:rgb(219,219,219); stroke-width:1.0px;"/>
<path d="M 1822.0 1029.0 L 1858.0 1015.0" style="fill:none; stroke:rgb(219,219,219); stroke-width:1.0px;"/>
<path d="M 1821.0 1029.0 L 1857.0 1015.0" style="fill:none; stroke:rgb(169,169,169); stroke-width:1.0px;"/>
<path d="M 1821.0 1028.0 L 1857.0 1014.0" style="fill:none; stroke:rgb(169,169,169); stroke-width:1.0px;"/>
<path d="M 1820.0 1028.0 L 1856.0 1014.0" style="fill:none; stroke:rgb(0,0,0); stroke-width:1.0px;"/>
<path d="M 1822.0 1050.0 L 1851.0 1046.0" style="fill:none; stroke:rgb(219,219,219); stroke-width:1.0px;"/>
<path d="M 1822.0 1049.0 L 1851.0 1045.0" style="fill:none; stroke:rgb(219,219,219); stroke-width:1.0px;"/>
<path d="M 1821.0 1049.0 L 1850.0 1045.0" style="fill:none; stroke:rgb(169,169,169); stroke-width:1.0px;"/>
<path d="M 1821.0 1048.0 L 1850.0 1044.0" style="fill:none; stroke:rgb(169,169,169); stroke-width:1.0px;"/>
<path d="M 1820.0 1048.0 L 1849.0 1044.0" style="fill:none; stroke:rgb(0,0,0); stroke-width:1.0px;"/>
<path d="M 1822.0 1079.0 L 1858.0 1079.0" style="fill:none; stroke:rgb(219,219,219); stroke-width:1.0px;"/>
<path d="M 1822.0 1078.0 L 1858.0 1078.0" style="fill:none; stroke:rgb(219,219,219); stroke-width:1.0px;"/>
<path d="M 1821.0 1078.0 L 1857.0 1078.0" style="fill:none; stroke:rgb(169,169,169); stroke-width:1.0px;"/>
<path d="M 1821.0 1077.0 L 1857.0 1077.0" style="fill:none; stroke:rgb(169,169,169); stroke-width:1.0px;"/>
<path d="M 1820.0 1077.0 L 1856.0 1077.0" style="fill:none; stroke:rgb(0,0,0); stroke-width:1.0px;"/>
<rect x="796.5px" y="493.5px" width="151.0px" height="76.0px" rx="0.0px" ry="0.0px" style="fill:none; stroke:rgb(219,219,219); stroke-width:1.0px;"/>
<rect x="796.5px" y="492.5px" width="151.0px" height="76.0px" rx="0.0px" ry="0.0px" style="fill:none; stroke:rgb(219,219,219); stroke-width:1.0px;"/>
<rect x="795.5px" y="492.5px" width="151.0px" height="76.0px" rx="0.0px" ry="0.0px" style="fill:none; stroke:rgb(169,169,169); stroke-width:1.0px;"/>
<rect x="795.5px" y="491.5px" width="151.0px" height="76.0px" rx="0.0px" ry="0.0px" style="fill:none; stroke:rgb(169,169,169); stroke-width:1.0px;"/>
<rect x="794.5px" y="491.5px" width="151.0px" height="76.0px" rx="0.0px" ry="0.0px" style="fill:rgb(255,255,255); stroke:rgb(0,0,0); stroke-width:1.0px;"/>
<text transform="translate(824.0,521.0), rotate(-0.0)" x="0px" y="0px" textLength="92.0px"
 style="font-family:Arial; font-size:13.0px; fill:rgb(0,0,0); stroke:none; baseline-shift:-13.0px; ">
   PREPARATION
</text>
<path d="M 1037.0 529.0 L 951.0 529.0" style="fill:none; stroke:rgb(0,0,0); stroke-width:1.0px;"/>
<text transform="translate(1017.0,506.0), rotate(-0.0)" x="0px" y="0px" textLength="26.0px"
 style="font-family:Arial; font-size:13.0px; fill:rgb(0,0,0); stroke:none; baseline-shift:-13.0px; ">
   (0,n)
</text>
<polygon points=" 951.0,529.0 958.0,533.0 954.0,529.0 958.0,525.0 " style="fill:rgb(0,0,0); stroke:rgb(0,0,0); stroke-width:1.0px;"/>
<rect x="380.5px" y="720.5px" width="151.0px" height="76.0px" rx="0.0px" ry="0.0px" style="fill:none; stroke:rgb(219,219,219); stroke-width:1.0px;"/>
<rect x="380.5px" y="719.5px" width="151.0px" height="76.0px" rx="0.0px" ry="0.0px" style="fill:none; stroke:rgb(219,219,219); stroke-width:1.0px;"/>
<rect x="379.5px" y="719.5px" width="151.0px" height="76.0px" rx="0.0px" ry="0.0px" style="fill:none; stroke:rgb(169,169,169); stroke-width:1.0px;"/>
<rect x="379.5px" y="718.5px" width="151.0px" height="76.0px" rx="0.0px" ry="0.0px" style="fill:none; stroke:rgb(169,169,169); stroke-width:1.0px;"/>
<rect x="378.5px" y="718.5px" width="151.0px" height="76.0px" rx="0.0px" ry="0.0px" style="fill:rgb(255,255,255); stroke:rgb(0,0,0); stroke-width:1.0px;"/>
<text transform="translate(404.0,748.0), rotate(-0.0)" x="0px" y="0px" textLength="99.0px"
 style="font-family:Arial; font-size:13.0px; fill:rgb(0,0,0); stroke:none; baseline-shift:-13.0px; ">
   COFFEE_DRINK
</text>
<rect x="841.5px" y="779.5px" width="57.0px" height="30.0px" rx="11.0px" ry="11.0px" style="fill:rgb(255,255,255); stroke:rgb(255,255,255); stroke-width:1.0px;"/>
<text transform="translate(855.0,797.0), rotate(-0.0)" x="0px" y="0px" textLength="28.0px"
 style="font-family:Arial; font-size:10.0px; text-decoration:underline; fill:rgb(0,0,0); stroke:none; ">
   Name
</text>
<path d="M 871.0 847.0 L 871.0 808.0" style="fill:none; stroke:rgb(219,219,219); stroke-width:1.0px;"/>
<path d="M 871.0 846.0 L 871.0 807.0" style="fill:none; stroke:rgb(219,219,219); stroke-width:1.0px;"/>
<path d="M 870.0 846.0 L 870.0 807.0" style="fill:none; stroke:rgb(169,169,169); stroke-width:1.0px;"/>
<path d="M 870.0 845.0 L 870.0 806.0" style="fill:none; stroke:rgb(169,169,169); stroke-width:1.0px;"/>
<path d="M 869.0 845.0 L 869.0 806.0" style="fill:none; stroke:rgb(0,0,0); stroke-width:1.0px;"/>
<rect x="1124.5px" y="1081.5px" width="57.0px" height="30.0px" rx="11.0px" ry="11.0px" style="fill:rgb(255,255,255); stroke:rgb(255,255,255); stroke-width:1.0px;"/>
<text transform="translate(1139.0,1100.0), rotate(-0.0)" x="0px" y="0px" textLength="28.0px"
 style="font-family:Arial; font-size:10.0px; text-decoration:underline; fill:rgb(0,0,0); stroke:none; ">
   Name
</text>
<path d="M 1155.0 1149.0 L 1155.0 1119.0" style="fill:none; stroke:rgb(219,219,219); stroke-width:1.0px;"/>
<path d="M 1155.0 1148.0 L 1155.0 1118.0" style="fill:none; stroke:rgb(219,219,219); stroke-width:1.0px;"/>
<path d="M 1154.0 1148.0 L 1154.0 1118.0" style="fill:none; stroke:rgb(169,169,169); stroke-width:1.0px;"/>
<path d="M 1154.0 1147.0 L 1154.0 1117.0" style="fill:none; stroke:rgb(169,169,169); stroke-width:1.0px;"/>
<path d="M 1153.0 1147.0 L 1153.0 1117.0" style="fill:none; stroke:rgb(0,0,0); stroke-width:1.0px;"/>
<rect x="1710.5px" y="684.5px" width="57.0px" height="30.0px" rx="11.0px" ry="11.0px" style="fill:rgb(255,255,255); stroke:rgb(255,255,255); stroke-width:1.0px;"/>
<text transform="translate(1725.0,703.0), rotate(-0.0)" x="0px" y="0px" textLength="28.0px"
 style="font-family:Arial; font-size:10.0px; text-decoration:underline; fill:rgb(0,0,0); stroke:none; ">
   Name
</text>
<path d="M 1741.0 733.0 L 1741.0 722.0" style="fill:none; stroke:rgb(219,219,219); stroke-width:1.0px;"/>
<path d="M 1741.0 732.0 L 1741.0 721.0" style="fill:none; stroke:rgb(219,219,219); stroke-width:1.0px;"/>
<path d="M 1740.0 732.0 L 1740.0 721.0" style="fill:none; stroke:rgb(169,169,169); stroke-width:1.0px;"/>
<path d="M 1740.0 731.0 L 1740.0 720.0" style="fill:none; stroke:rgb(169,169,169); stroke-width:1.0px;"/>
<path d="M 1739.0 731.0 L 1739.0 720.0" style="fill:none; stroke:rgb(0,0,0); stroke-width:1.0px;"/>
<rect x="123.5px" y="1421.5px" width="57.0px" height="30.0px" rx="11.0px" ry="11.0px" style="fill:rgb(255,255,255); stroke:rgb(255,255,255); stroke-width:1.0px;"/>
<text transform="translate(118.0,1418.0), rotate(-0.0)" x="0px" y="0px" textLength="66.0px"
 style="font-family:Arial; font-size:10.0px; fill:rgb(0,0,0); stroke:none; baseline-shift:-10.0px; ">
   ___________
</text>
<text transform="translate(132.0,1430.0), rotate(-0.0)" x="0px" y="0px" textLength="40.0px"
 style="font-family:Arial; font-size:10.0px; fill:rgb(0,0,0); stroke:none; baseline-shift:-10.0px; ">
   ArticleID
</text>
<path d="M 208.0 1438.0 L 191.0 1438.0" style="fill:none; stroke:rgb(219,219,219); stroke-width:1.0px;"/>
<path d="M 208.0 1437.0 L 191.0 1437.0" style="fill:none; stroke:rgb(219,219,219); stroke-width:1.0px;"/>
<path d="M 207.0 1437.0 L 190.0 1437.0" style="fill:none; stroke:rgb(169,169,169); stroke-width:1.0px;"/>
<path d="M 207.0 1436.0 L 190.0 1436.0" style="fill:none; stroke:rgb(169,169,169); stroke-width:1.0px;"/>
<path d="M 206.0 1436.0 L 189.0 1436.0" style="fill:none; stroke:rgb(0,0,0); stroke-width:1.0px;"/>
<rect x="444.5px" y="665.5px" width="57.0px" height="30.0px" rx="11.0px" ry="11.0px" style="fill:rgb(255,255,255); stroke:rgb(255,255,255); stroke-width:1.0px;"/>
<text transform="translate(458.0,684.0), rotate(-0.0)" x="0px" y="0px" textLength="28.0px"
 style="font-family:Arial; font-size:10.0px; text-decoration:underline; fill:rgb(0,0,0); stroke:none; ">
   Name
</text>
<path d="M 467.0 714.0 L 469.0 703.0" style="fill:none; stroke:rgb(219,219,219); stroke-width:1.0px;"/>
<path d="M 467.0 713.0 L 469.0 702.0" style="fill:none; stroke:rgb(219,219,219); stroke-width:1.0px;"/>
<path d="M 466.0 713.0 L 468.0 702.0" style="fill:none; stroke:rgb(169,169,169); stroke-width:1.0px;"/>
<path d="M 466.0 712.0 L 468.0 701.0" style="fill:none; stroke:rgb(169,169,169); stroke-width:1.0px;"/>
<path d="M 465.0 712.0 L 467.0 701.0" style="fill:none; stroke:rgb(0,0,0); stroke-width:1.0px;"/>
<rect x="765.5px" y="779.5px" width="57.0px" height="30.0px" rx="11.0px" ry="11.0px" style="fill:rgb(255,255,255); stroke:rgb(255,255,255); stroke-width:1.0px;"/>
<text transform="translate(766.0,797.0), rotate(-0.0)" x="0px" y="0px" textLength="56.0px"
 style="font-family:Arial; font-size:10.0px; text-decoration:underline; fill:rgb(0,0,0); stroke:none; ">
   Provenance
</text>
<path d="M 796.0 847.0 L 796.0 816.0" style="fill:none; stroke:rgb(219,219,219); stroke-width:1.0px;"/>
<path d="M 796.0 846.0 L 796.0 815.0" style="fill:none; stroke:rgb(219,219,219); stroke-width:1.0px;"/>
<path d="M 795.0 846.0 L 795.0 815.0" style="fill:none; stroke:rgb(169,169,169); stroke-width:1.0px;"/>
<path d="M 795.0 845.0 L 795.0 814.0" style="fill:none; stroke:rgb(169,169,169); stroke-width:1.0px;"/>
<path d="M 794.0 845.0 L 794.0 814.0" style="fill:none; stroke:rgb(0,0,0); stroke-width:1.0px;"/>
<polygon points=" 1688.0,909.0 1741.0,949.0 1793.0,909.0 1741.0,869.0 " style="fill:none; stroke:rgb(219,219,219); stroke-width:1.0px;"/>
<polygon points=" 1688.0,908.0 1741.0,948.0 1793.0,908.0 1741.0,868.0 " style="fill:none; stroke:rgb(219,219,219); stroke-width:1.0px;"/>
<polygon points=" 1687.0,908.0 1740.0,948.0 1792.0,908.0 1740.0,868.0 " style="fill:none; stroke:rgb(169,169,169); stroke-width:1.0px;"/>
<polygon points=" 1687.0,907.0 1740.0,947.0 1792.0,907.0 1740.0,867.0 " style="fill:none; stroke:rgb(169,169,169); stroke-width:1.0px;"/>
<polygon points=" 1686.0,907.0 1739.0,947.0 1791.0,907.0 1739.0,867.0 " style="fill:rgb(255,255,255); stroke:rgb(0,0,0); stroke-width:1.0px;"/>
<text transform="translate(1707.0,899.0), rotate(-0.0)" x="0px" y="0px" textLength="63.0px"
 style="font-family:Arial; font-size:13.0px; fill:rgb(0,0,0); stroke:none; baseline-shift:-13.0px; ">
   belongs_to
</text>
<path d="M 1739.0 862.0 L 1739.0 818.0" style="fill:none; stroke:rgb(0,0,0); stroke-width:1.0px;"/>
<text transform="translate(1741.0,846.0), rotate(-0.0)" x="0px" y="0px" textLength="26.0px"
 style="font-family:Arial; font-size:13.0px; fill:rgb(0,0,0); stroke:none; baseline-shift:-13.0px; ">
   (0,n)
</text>
<polygon points=" 1739.0,818.0 1735.0,826.0 1739.0,822.0 1742.0,826.0 " style="fill:rgb(0,0,0); stroke:rgb(0,0,0); stroke-width:1.0px;"/>
<path d="M 1739.0 952.0 L 1739.0 1015.0" style="fill:none; stroke:rgb(0,0,0); stroke-width:1.0px;"/>
<text transform="translate(1711.0,952.0), rotate(-0.0)" x="0px" y="0px" textLength="26.0px"
 style="font-family:Arial; font-size:13.0px; fill:rgb(0,0,0); stroke:none; baseline-shift:-13.0px; ">
   (0,1)
</text>
<polygon points=" 1739.0,1015.0 1742.0,1007.0 1739.0,1011.0 1735.0,1007.0 " style="fill:rgb(0,0,0); stroke:rgb(0,0,0); stroke-width:1.0px;"/>
<rect x="841.5px" y="438.5px" width="57.0px" height="31.0px" rx="11.0px" ry="11.0px" style="fill:rgb(255,255,255); stroke:rgb(255,255,255); stroke-width:1.0px;"/>
<text transform="translate(855.0,457.0), rotate(-0.0)" x="0px" y="0px" textLength="28.0px"
 style="font-family:Arial; font-size:10.0px; text-decoration:underline; fill:rgb(0,0,0); stroke:none; ">
   Name
</text>
<path d="M 871.0 488.0 L 871.0 476.0" style="fill:none; stroke:rgb(219,219,219); stroke-width:1.0px;"/>
<path d="M 871.0 487.0 L 871.0 475.0" style="fill:none; stroke:rgb(219,219,219); stroke-width:1.0px;"/>
<path d="M 870.0 487.0 L 870.0 475.0" style="fill:none; stroke:rgb(169,169,169); stroke-width:1.0px;"/>
<path d="M 870.0 486.0 L 870.0 474.0" style="fill:none; stroke:rgb(169,169,169); stroke-width:1.0px;"/>
<path d="M 869.0 486.0 L 869.0 474.0" style="fill:none; stroke:rgb(0,0,0); stroke-width:1.0px;"/>
<rect x="739.5px" y="1136.5px" width="151.0px" height="75.0px" rx="0.0px" ry="0.0px" style="fill:none; stroke:rgb(219,219,219); stroke-width:1.0px;"/>
<rect x="739.5px" y="1135.5px" width="151.0px" height="75.0px" rx="0.0px" ry="0.0px" style="fill:none; stroke:rgb(219,219,219); stroke-width:1.0px;"/>
<rect x="738.5px" y="1135.5px" width="151.0px" height="75.0px" rx="0.0px" ry="0.0px" style="fill:none; stroke:rgb(169,169,169); stroke-width:1.0px;"/>
<rect x="738.5px" y="1134.5px" width="151.0px" height="75.0px" rx="0.0px" ry="0.0px" style="fill:none; stroke:rgb(169,169,169); stroke-width:1.0px;"/>
<rect x="737.5px" y="1134.5px" width="151.0px" height="75.0px" rx="0.0px" ry="0.0px" style="fill:rgb(255,255,255); stroke:rgb(0,0,0); stroke-width:1.0px;"/>
<text transform="translate(759.0,1164.0), rotate(-0.0)" x="0px" y="0px" textLength="107.0px"
 style="font-family:Arial; font-size:13.0px; fill:rgb(0,0,0); stroke:none; baseline-shift:-13.0px; ">
   MANUFACTURER
</text>
<rect x="633.5px" y="1157.5px" width="57.0px" height="30.0px" rx="11.0px" ry="11.0px" style="fill:rgb(255,255,255); stroke:rgb(255,255,255); stroke-width:1.0px;"/>
<text transform="translate(647.0,1175.0), rotate(-0.0)" x="0px" y="0px" textLength="28.0px"
 style="font-family:Arial; font-size:10.0px; text-decoration:underline; fill:rgb(0,0,0); stroke:none; ">
   Name
</text>
<path d="M 733.0 1174.0 L 697.0 1174.0" style="fill:none; stroke:rgb(219,219,219); stroke-width:1.0px;"/>
<path d="M 733.0 1173.0 L 697.0 1173.0" style="fill:none; stroke:rgb(219,219,219); stroke-width:1.0px;"/>
<path d="M 732.0 1173.0 L 696.0 1173.0" style="fill:none; stroke:rgb(169,169,169); stroke-width:1.0px;"/>
<path d="M 732.0 1172.0 L 696.0 1172.0" style="fill:none; stroke:rgb(169,169,169); stroke-width:1.0px;"/>
<path d="M 731.0 1172.0 L 695.0 1172.0" style="fill:none; stroke:rgb(0,0,0); stroke-width:1.0px;"/>
<polygon points=" 762.0,1041.0 815.0,1081.0 868.0,1041.0 815.0,1002.0 " style="fill:none; stroke:rgb(219,219,219); stroke-width:1.0px;"/>
<polygon points=" 762.0,1040.0 815.0,1080.0 868.0,1040.0 815.0,1001.0 " style="fill:none; stroke:rgb(219,219,219); stroke-width:1.0px;"/>
<polygon points=" 761.0,1040.0 814.0,1080.0 867.0,1040.0 814.0,1001.0 " style="fill:none; stroke:rgb(169,169,169); stroke-width:1.0px;"/>
<polygon points=" 761.0,1039.0 814.0,1079.0 867.0,1039.0 814.0,1000.0 " style="fill:none; stroke:rgb(169,169,169); stroke-width:1.0px;"/>
<polygon points=" 760.0,1039.0 813.0,1079.0 866.0,1039.0 813.0,1000.0 " style="fill:rgb(255,255,255); stroke:rgb(0,0,0); stroke-width:1.0px;"/>
<text transform="translate(790.0,1031.0), rotate(-0.0)" x="0px" y="0px" textLength="46.0px"
 style="font-family:Arial; font-size:13.0px; fill:rgb(0,0,0); stroke:none; baseline-shift:-13.0px; ">
   produce
</text>
<path d="M 818.0 994.0 L 826.0 932.0" style="fill:none; stroke:rgb(0,0,0); stroke-width:1.0px;"/>
<text transform="translate(821.0,980.0), rotate(-0.0)" x="0px" y="0px" textLength="26.0px"
 style="font-family:Arial; font-size:13.0px; fill:rgb(0,0,0); stroke:none; baseline-shift:-13.0px; ">
   (0,n)
</text>
<polygon points=" 826.0,932.0 822.0,939.0 826.0,935.0 829.0,940.0 " style="fill:rgb(0,0,0); stroke:rgb(0,0,0); stroke-width:1.0px;"/>
<path d="M 813.0 1085.0 L 813.0 1128.0" style="fill:none; stroke:rgb(0,0,0); stroke-width:1.0px;"/>
<text transform="translate(785.0,1084.0), rotate(-0.0)" x="0px" y="0px" textLength="26.0px"
 style="font-family:Arial; font-size:13.0px; fill:rgb(0,0,0); stroke:none; baseline-shift:-13.0px; ">
   (1,n)
</text>
<polygon points=" 813.0,1128.0 816.0,1121.0 813.0,1124.0 809.0,1121.0 " style="fill:rgb(0,0,0); stroke:rgb(0,0,0); stroke-width:1.0px;"/>
<path d="M 905.0 1039.0 L 871.0 1039.0" style="fill:none; stroke:rgb(0,0,0); stroke-width:1.0px;"/>
<text transform="translate(885.0,1016.0), rotate(-0.0)" x="0px" y="0px" textLength="26.0px"
 style="font-family:Arial; font-size:13.0px; fill:rgb(0,0,0); stroke:none; baseline-shift:-13.0px; ">
   (0,n)
</text>
<polygon points=" 871.0,1039.0 879.0,1043.0 875.0,1039.0 879.0,1036.0 " style="fill:rgb(0,0,0); stroke:rgb(0,0,0); stroke-width:1.0px;"/>
</g>
</svg>
