<?xml version="1.0" encoding="UTF-8" standalone="no"?>
<svg width="2996.0px" height="1497.0px" version="1.1" xmlns="http://www.w3.org/2000/svg" xmlns:xlink="http://www.w3.org/1999/xlink">
<g>
<rect x="0.0px" y="0.0px" width="2996.0px" height="1497.0px" rx="0.0px" ry="0.0px" style="fill:rgb(255,255,255);"/>
<rect x="1722.5px" y="474.5px" width="151.0px" height="76.0px" rx="0.0px" ry="0.0px" style="fill:none; stroke:rgb(219,219,219); stroke-width:1.0px;"/>
<rect x="1722.5px" y="473.5px" width="151.0px" height="76.0px" rx="0.0px" ry="0.0px" style="fill:none; stroke:rgb(219,219,219); stroke-width:1.0px;"/>
<rect x="1721.5px" y="473.5px" width="151.0px" height="76.0px" rx="0.0px" ry="0.0px" style="fill:none; stroke:rgb(178,034,034); stroke-width:1.0px;"/>
<rect x="1721.5px" y="472.5px" width="151.0px" height="76.0px" rx="0.0px" ry="0.0px" style="fill:none; stroke:rgb(178,034,034); stroke-width:1.0px;"/>
<rect x="1720.5px" y="472.5px" width="151.0px" height="76.0px" rx="0.0px" ry="0.0px" style="fill:rgb(255,255,255); stroke:rgb(178,034,034); stroke-width:1.0px;"/>
<text transform="translate(1748.0,502.0), rotate(-0.0)" x="0px" y="0px" textLength="94.0px"
 style="font-family:Arial; font-size:13.0px; fill:rgb(0,0,0); stroke:none; baseline-shift:-13.0px; ">
   COFFEE-SHOP
</text>
<polygon points=" 2557.0,285.0 2610.0,325.0 2663.0,285.0 2610.0,246.0 " style="fill:none; stroke:rgb(219,219,219); stroke-width:1.0px;"/>
<polygon points=" 2557.0,284.0 2610.0,324.0 2663.0,284.0 2610.0,245.0 " style="fill:none; stroke:rgb(219,219,219); stroke-width:1.0px;"/>
<polygon points=" 2556.0,284.0 2609.0,324.0 2662.0,284.0 2609.0,245.0 " style="fill:none; stroke:rgb(169,169,169); stroke-width:1.0px;"/>
<polygon points=" 2556.0,283.0 2609.0,323.0 2662.0,283.0 2609.0,244.0 " style="fill:none; stroke:rgb(169,169,169); stroke-width:1.0px;"/>
<polygon points=" 2555.0,283.0 2608.0,323.0 2661.0,283.0 2608.0,244.0 " style="fill:rgb(255,255,255); stroke:rgb(0,0,0); stroke-width:1.0px;"/>
<text transform="translate(2590.0,276.0), rotate(-0.0)" x="0px" y="0px" textLength="36.0px"
 style="font-family:Arial; font-size:13.0px; fill:rgb(0,0,0); stroke:none; baseline-shift:-13.0px; ">
   USER
</text>
<polygon points=" 2179.0,512.0 2232.0,552.0 2285.0,512.0 2232.0,473.0 " style="fill:none; stroke:rgb(219,219,219); stroke-width:1.0px;"/>
<polygon points=" 2179.0,511.0 2232.0,551.0 2285.0,511.0 2232.0,472.0 " style="fill:none; stroke:rgb(219,219,219); stroke-width:1.0px;"/>
<polygon points=" 2178.0,511.0 2231.0,551.0 2284.0,511.0 2231.0,472.0 " style="fill:none; stroke:rgb(169,169,169); stroke-width:1.0px;"/>
<polygon points=" 2178.0,510.0 2231.0,550.0 2284.0,510.0 2231.0,471.0 " style="fill:none; stroke:rgb(169,169,169); stroke-width:1.0px;"/>
<polygon points=" 2177.0,510.0 2230.0,550.0 2283.0,510.0 2230.0,471.0 " style="fill:rgb(255,255,255); stroke:rgb(0,0,0); stroke-width:1.0px;"/>
<text transform="translate(2206.0,502.0), rotate(-0.0)" x="0px" y="0px" textLength="47.0px"
 style="font-family:Arial; font-size:13.0px; fill:rgb(0,0,0); stroke:none; baseline-shift:-13.0px; ">
   RATING
</text>
<rect x="2156.5px" y="777.5px" width="152.0px" height="75.0px" rx="0.0px" ry="0.0px" style="fill:none; stroke:rgb(219,219,219); stroke-width:1.0px;"/>
<rect x="2156.5px" y="776.5px" width="152.0px" height="75.0px" rx="0.0px" ry="0.0px" style="fill:none; stroke:rgb(219,219,219); stroke-width:1.0px;"/>
<rect x="2155.5px" y="776.5px" width="152.0px" height="75.0px" rx="0.0px" ry="0.0px" style="fill:none; stroke:rgb(169,169,169); stroke-width:1.0px;"/>
<rect x="2155.5px" y="775.5px" width="152.0px" height="75.0px" rx="0.0px" ry="0.0px" style="fill:none; stroke:rgb(169,169,169); stroke-width:1.0px;"/>
<rect x="2154.5px" y="775.5px" width="152.0px" height="75.0px" rx="0.0px" ry="0.0px" style="fill:rgb(255,255,255); stroke:rgb(0,0,0); stroke-width:1.0px;"/>
<text transform="translate(2177.0,805.0), rotate(-0.0)" x="0px" y="0px" textLength="107.0px"
 style="font-family:Arial; font-size:13.0px; fill:rgb(0,0,0); stroke:none; baseline-shift:-13.0px; ">
   GOOGLE-RATING
</text>
<rect x="2326.5px" y="777.5px" width="152.0px" height="75.0px" rx="0.0px" ry="0.0px" style="fill:none; stroke:rgb(219,219,219); stroke-width:1.0px;"/>
<rect x="2326.5px" y="776.5px" width="152.0px" height="75.0px" rx="0.0px" ry="0.0px" style="fill:none; stroke:rgb(219,219,219); stroke-width:1.0px;"/>
<rect x="2325.5px" y="776.5px" width="152.0px" height="75.0px" rx="0.0px" ry="0.0px" style="fill:none; stroke:rgb(169,169,169); stroke-width:1.0px;"/>
<rect x="2325.5px" y="775.5px" width="152.0px" height="75.0px" rx="0.0px" ry="0.0px" style="fill:none; stroke:rgb(169,169,169); stroke-width:1.0px;"/>
<rect x="2324.5px" y="775.5px" width="152.0px" height="75.0px" rx="0.0px" ry="0.0px" style="fill:rgb(255,255,255); stroke:rgb(0,0,0); stroke-width:1.0px;"/>
<text transform="translate(2357.0,805.0), rotate(-0.0)" x="0px" y="0px" textLength="87.0px"
 style="font-family:Arial; font-size:13.0px; fill:rgb(0,0,0); stroke:none; baseline-shift:-13.0px; ">
   USER-RATING
</text>
<rect x="1986.5px" y="777.5px" width="151.0px" height="75.0px" rx="0.0px" ry="0.0px" style="fill:none; stroke:rgb(219,219,219); stroke-width:1.0px;"/>
<rect x="1986.5px" y="776.5px" width="151.0px" height="75.0px" rx="0.0px" ry="0.0px" style="fill:none; stroke:rgb(219,219,219); stroke-width:1.0px;"/>
<rect x="1985.5px" y="776.5px" width="151.0px" height="75.0px" rx="0.0px" ry="0.0px" style="fill:none; stroke:rgb(169,169,169); stroke-width:1.0px;"/>
<rect x="1985.5px" y="775.5px" width="151.0px" height="75.0px" rx="0.0px" ry="0.0px" style="fill:none; stroke:rgb(169,169,169); stroke-width:1.0px;"/>
<rect x="1984.5px" y="775.5px" width="151.0px" height="75.0px" rx="0.0px" ry="0.0px" style="fill:rgb(255,255,255); stroke:rgb(0,0,0); stroke-width:1.0px;"/>
<text transform="translate(2016.0,796.0), rotate(-0.0)" x="0px" y="0px" textLength="89.0px"
 style="font-family:Arial; font-size:13.0px; fill:rgb(0,0,0); stroke:none; baseline-shift:-13.0px; ">
   TRIPADVICER-
</text>
<text transform="translate(2036.0,813.0), rotate(-0.0)" x="0px" y="0px" textLength="47.0px"
 style="font-family:Arial; font-size:13.0px; fill:rgb(0,0,0); stroke:none; baseline-shift:-13.0px; ">
   RATING
</text>
<line x1="2219.0px" y1="645.0px" x2="2245.0px" y2="645.0px" style="stroke:rgb(219,219,219); stroke-width:3.0px;"/>
<line x1="2232.0px" y1="631.0px" x2="2232.0px" y2="658.0px" style="stroke:rgb(219,219,219); stroke-width:3.0px;"/>
<ellipse cx="2232.5px" cy="645.5px" rx="22.5px" ry="22.5px" style="fill:none; stroke:rgb(219,219,219); stroke-width:1.0px;"/>
<line x1="2219.0px" y1="644.0px" x2="2245.0px" y2="644.0px" style="stroke:rgb(219,219,219); stroke-width:3.0px;"/>
<line x1="2232.0px" y1="630.0px" x2="2232.0px" y2="657.0px" style="stroke:rgb(219,219,219); stroke-width:3.0px;"/>
<ellipse cx="2232.5px" cy="644.5px" rx="22.5px" ry="22.5px" style="fill:none; stroke:rgb(219,219,219); stroke-width:1.0px;"/>
<line x1="2218.0px" y1="644.0px" x2="2244.0px" y2="644.0px" style="stroke:rgb(169,169,169); stroke-width:3.0px;"/>
<line x1="2231.0px" y1="630.0px" x2="2231.0px" y2="657.0px" style="stroke:rgb(169,169,169); stroke-width:3.0px;"/>
<ellipse cx="2231.5px" cy="644.5px" rx="22.5px" ry="22.5px" style="fill:none; stroke:rgb(169,169,169); stroke-width:1.0px;"/>
<line x1="2218.0px" y1="643.0px" x2="2244.0px" y2="643.0px" style="stroke:rgb(169,169,169); stroke-width:3.0px;"/>
<line x1="2231.0px" y1="629.0px" x2="2231.0px" y2="656.0px" style="stroke:rgb(169,169,169); stroke-width:3.0px;"/>
<ellipse cx="2231.5px" cy="643.5px" rx="22.5px" ry="22.5px" style="fill:none; stroke:rgb(169,169,169); stroke-width:1.0px;"/>
<text transform="translate(2196.0,597.0), rotate(-0.0)" x="0px" y="0px" textLength="68.0px"
 style="font-family:Arial; font-size:13.0px; fill:rgb(0,0,0); stroke:none; baseline-shift:-13.0px; ">
   rate_cluster
</text>
<line x1="2217.0px" y1="643.0px" x2="2243.0px" y2="643.0px" style="stroke:rgb(0,0,0); stroke-width:3.0px;"/>
<line x1="2230.0px" y1="629.0px" x2="2230.0px" y2="656.0px" style="stroke:rgb(0,0,0); stroke-width:3.0px;"/>
<ellipse cx="2230.5px" cy="643.5px" rx="22.5px" ry="22.5px" style="fill:none; stroke:rgb(0,0,0); stroke-width:1.0px;"/>
<path d="M 2230.0 671.0 L 2230.0 769.0" style="fill:none; stroke:rgb(0,0,0); stroke-width:1.0px;"/>
<polygon points=" 2230.0,769.0 2234.0,762.0 2230.0,765.0 2226.0,762.0 " style="fill:rgb(0,0,0); stroke:rgb(0,0,0); stroke-width:1.0px;"/>
<path d="M 2258.0 671.0 L 2357.0 769.0" style="fill:none; stroke:rgb(0,0,0); stroke-width:1.0px;"/>
<polygon points=" 2357.0,769.0 2354.0,761.0 2354.0,766.0 2349.0,766.0 " style="fill:rgb(0,0,0); stroke:rgb(0,0,0); stroke-width:1.0px;"/>
<path d="M 2202.0 671.0 L 2103.0 769.0" style="fill:none; stroke:rgb(0,0,0); stroke-width:1.0px;"/>
<polygon points=" 2103.0,769.0 2111.0,766.0 2106.0,766.0 2106.0,761.0 " style="fill:rgb(0,0,0); stroke:rgb(0,0,0); stroke-width:1.0px;"/>
<polygon points=" 1990.0,512.0 2043.0,552.0 2096.0,512.0 2043.0,473.0 " style="fill:none; stroke:rgb(219,219,219); stroke-width:1.0px;"/>
<polygon points=" 1990.0,511.0 2043.0,551.0 2096.0,511.0 2043.0,472.0 " style="fill:none; stroke:rgb(219,219,219); stroke-width:1.0px;"/>
<polygon points=" 1989.0,511.0 2042.0,551.0 2095.0,511.0 2042.0,472.0 " style="fill:none; stroke:rgb(169,169,169); stroke-width:1.0px;"/>
<polygon points=" 1989.0,510.0 2042.0,550.0 2095.0,510.0 2042.0,471.0 " style="fill:none; stroke:rgb(169,169,169); stroke-width:1.0px;"/>
<polygon points=" 1988.0,510.0 2041.0,550.0 2094.0,510.0 2041.0,471.0 " style="fill:rgb(255,255,255); stroke:rgb(0,0,0); stroke-width:1.0px;"/>
<text transform="translate(2016.0,502.0), rotate(-0.0)" x="0px" y="0px" textLength="50.0px"
 style="font-family:Arial; font-size:13.0px; fill:rgb(0,0,0); stroke:none; baseline-shift:-13.0px; ">
   rated_by
</text>
<path d="M 1982.0 510.0 L 1877.0 510.0" style="fill:none; stroke:rgb(0,0,0); stroke-width:1.0px;"/>
<text transform="translate(1962.0,487.0), rotate(-0.0)" x="0px" y="0px" textLength="26.0px"
 style="font-family:Arial; font-size:13.0px; fill:rgb(0,0,0); stroke:none; baseline-shift:-13.0px; ">
   (0,n)
</text>
<polygon points=" 1877.0,510.0 1884.0,514.0 1880.0,510.0 1884.0,506.0 " style="fill:rgb(0,0,0); stroke:rgb(0,0,0); stroke-width:1.0px;"/>
<path d="M 2100.0 510.0 L 2171.0 510.0" style="fill:none; stroke:rgb(0,0,0); stroke-width:1.0px;"/>
<text transform="translate(2094.0,517.0), rotate(-0.0)" x="0px" y="0px" textLength="26.0px"
 style="font-family:Arial; font-size:13.0px; fill:rgb(0,0,0); stroke:none; baseline-shift:-13.0px; ">
   (1,1)
</text>
<polygon points=" 2171.0,510.0 2164.0,506.0 2168.0,510.0 2164.0,514.0 " style="fill:rgb(0,0,0); stroke:rgb(0,0,0); stroke-width:1.0px;"/>
<polygon points=" 1990.0,285.0 2043.0,325.0 2096.0,285.0 2043.0,246.0 " style="fill:none; stroke:rgb(219,219,219); stroke-width:1.0px;"/>
<polygon points=" 1990.0,284.0 2043.0,324.0 2096.0,284.0 2043.0,245.0 " style="fill:none; stroke:rgb(219,219,219); stroke-width:1.0px;"/>
<polygon points=" 1989.0,284.0 2042.0,324.0 2095.0,284.0 2042.0,245.0 " style="fill:none; stroke:rgb(169,169,169); stroke-width:1.0px;"/>
<polygon points=" 1989.0,283.0 2042.0,323.0 2095.0,283.0 2042.0,244.0 " style="fill:none; stroke:rgb(169,169,169); stroke-width:1.0px;"/>
<polygon points=" 1988.0,283.0 2041.0,323.0 2094.0,283.0 2041.0,244.0 " style="fill:rgb(255,255,255); stroke:rgb(0,0,0); stroke-width:1.0px;"/>
<text transform="translate(2027.0,276.0), rotate(-0.0)" x="0px" y="0px" textLength="29.0px"
 style="font-family:Arial; font-size:13.0px; fill:rgb(0,0,0); stroke:none; baseline-shift:-13.0px; ">
   rates
</text>
<path d="M 2041.0 329.0 L 2041.0 465.0" style="fill:none; stroke:rgb(0,0,0); stroke-width:1.0px;"/>
<text transform="translate(2013.0,328.0), rotate(-0.0)" x="0px" y="0px" textLength="26.0px"
 style="font-family:Arial; font-size:13.0px; fill:rgb(0,0,0); stroke:none; baseline-shift:-13.0px; ">
   (1,1)
</text>
<polygon points=" 2041.0,465.0 2045.0,457.0 2041.0,461.0 2037.0,457.0 " style="fill:rgb(0,0,0); stroke:rgb(0,0,0); stroke-width:1.0px;"/>
<rect x="2251.5px" y="248.5px" width="151.0px" height="75.0px" rx="0.0px" ry="0.0px" style="fill:none; stroke:rgb(219,219,219); stroke-width:1.0px;"/>
<rect x="2251.5px" y="247.5px" width="151.0px" height="75.0px" rx="0.0px" ry="0.0px" style="fill:none; stroke:rgb(219,219,219); stroke-width:1.0px;"/>
<rect x="2250.5px" y="247.5px" width="151.0px" height="75.0px" rx="0.0px" ry="0.0px" style="fill:none; stroke:rgb(169,169,169); stroke-width:1.0px;"/>
<rect x="2250.5px" y="246.5px" width="151.0px" height="75.0px" rx="0.0px" ry="0.0px" style="fill:none; stroke:rgb(169,169,169); stroke-width:1.0px;"/>
<rect x="2249.5px" y="246.5px" width="151.0px" height="75.0px" rx="0.0px" ry="0.0px" style="fill:rgb(255,255,255); stroke:rgb(0,0,0); stroke-width:1.0px;"/>
<text transform="translate(2302.0,276.0), rotate(-0.0)" x="0px" y="0px" textLength="44.0px"
 style="font-family:Arial; font-size:13.0px; fill:rgb(0,0,0); stroke:none; baseline-shift:-13.0px; ">
   ACTOR
</text>
<path d="M 2549.0 283.0 L 2406.0 283.0" style="fill:none; stroke:rgb(0,0,0); stroke-width:1.0px;"/>
<polygon points=" 2406.0,283.0 2413.0,287.0 2409.0,283.0 2413.0,280.0 " style="fill:rgb(0,0,0); stroke:rgb(0,0,0); stroke-width:1.0px;"/>
<path d="M 2100.0 283.0 L 2243.0 283.0" style="fill:none; stroke:rgb(0,0,0); stroke-width:1.0px;"/>
<text transform="translate(2094.0,291.0), rotate(-0.0)" x="0px" y="0px" textLength="26.0px"
 style="font-family:Arial; font-size:13.0px; fill:rgb(0,0,0); stroke:none; baseline-shift:-13.0px; ">
   (0,n)
</text>
<polygon points=" 2243.0,283.0 2236.0,280.0 2239.0,283.0 2236.0,287.0 " style="fill:rgb(0,0,0); stroke:rgb(0,0,0); stroke-width:1.0px;"/>
<path d="M 2230.0 556.0 L 2230.0 591.0" style="fill:none; stroke:rgb(0,0,0); stroke-width:1.0px;"/>
<polygon points=" 2230.0,591.0 2234.0,584.0 2230.0,587.0 2226.0,584.0 " style="fill:rgb(0,0,0); stroke:rgb(0,0,0); stroke-width:1.0px;"/>
<rect x="1559.5px" y="476.5px" width="57.0px" height="30.0px" rx="11.0px" ry="11.0px" style="fill:rgb(255,255,255); stroke:rgb(255,255,255); stroke-width:1.0px;"/>
<text transform="translate(1573.0,495.0), rotate(-0.0)" x="0px" y="0px" textLength="28.0px"
 style="font-family:Arial; font-size:10.0px; text-decoration:underline; fill:rgb(0,0,0); stroke:none; ">
   Name
</text>
<path d="M 1716.0 493.0 L 1623.0 493.0" style="fill:none; stroke:rgb(219,219,219); stroke-width:1.0px;"/>
<path d="M 1716.0 492.0 L 1623.0 492.0" style="fill:none; stroke:rgb(219,219,219); stroke-width:1.0px;"/>
<path d="M 1715.0 492.0 L 1622.0 492.0" style="fill:none; stroke:rgb(169,169,169); stroke-width:1.0px;"/>
<path d="M 1715.0 491.0 L 1622.0 491.0" style="fill:none; stroke:rgb(169,169,169); stroke-width:1.0px;"/>
<path d="M 1714.0 491.0 L 1621.0 491.0" style="fill:none; stroke:rgb(0,0,0); stroke-width:1.0px;"/>
<rect x="1559.5px" y="514.5px" width="57.0px" height="30.0px" rx="11.0px" ry="11.0px" style="fill:rgb(255,255,255); stroke:rgb(255,255,255); stroke-width:1.0px;"/>
<text transform="translate(1570.0,533.0), rotate(-0.0)" x="0px" y="0px" textLength="36.0px"
 style="font-family:Arial; font-size:10.0px; text-decoration:underline; fill:rgb(0,0,0); stroke:none; ">
   Address
</text>
<path d="M 1716.0 531.0 L 1623.0 531.0" style="fill:none; stroke:rgb(219,219,219); stroke-width:1.0px;"/>
<path d="M 1716.0 530.0 L 1623.0 530.0" style="fill:none; stroke:rgb(219,219,219); stroke-width:1.0px;"/>
<path d="M 1715.0 530.0 L 1622.0 530.0" style="fill:none; stroke:rgb(169,169,169); stroke-width:1.0px;"/>
<path d="M 1715.0 529.0 L 1622.0 529.0" style="fill:none; stroke:rgb(169,169,169); stroke-width:1.0px;"/>
<path d="M 1714.0 529.0 L 1621.0 529.0" style="fill:none; stroke:rgb(0,0,0); stroke-width:1.0px;"/>
<rect x="2296.5px" y="193.5px" width="57.0px" height="30.0px" rx="11.0px" ry="11.0px" style="fill:rgb(255,255,255); stroke:rgb(255,255,255); stroke-width:1.0px;"/>
<text transform="translate(2310.0,211.0), rotate(-0.0)" x="0px" y="0px" textLength="28.0px"
 style="font-family:Arial; font-size:10.0px; text-decoration:underline; fill:rgb(0,0,0); stroke:none; ">
   Email
</text>
<path d="M 2326.0 242.0 L 2326.0 231.0" style="fill:none; stroke:rgb(219,219,219); stroke-width:1.0px;"/>
<path d="M 2326.0 241.0 L 2326.0 230.0" style="fill:none; stroke:rgb(219,219,219); stroke-width:1.0px;"/>
<path d="M 2325.0 241.0 L 2325.0 230.0" style="fill:none; stroke:rgb(169,169,169); stroke-width:1.0px;"/>
<path d="M 2325.0 240.0 L 2325.0 229.0" style="fill:none; stroke:rgb(169,169,169); stroke-width:1.0px;"/>
<path d="M 2324.0 240.0 L 2324.0 229.0" style="fill:none; stroke:rgb(0,0,0); stroke-width:1.0px;"/>
<rect x="2202.5px" y="420.5px" width="56.0px" height="30.0px" rx="11.0px" ry="11.0px" style="fill:rgb(255,255,255); stroke:rgb(255,255,255); stroke-width:1.0px;"/>
<text transform="translate(2210.0,438.0), rotate(-0.0)" x="0px" y="0px" textLength="41.0px"
 style="font-family:Arial; font-size:10.0px; text-decoration:underline; fill:rgb(0,0,0); stroke:none; ">
   RatingID
</text>
<path d="M 2232.0 467.0 L 2232.0 457.0" style="fill:none; stroke:rgb(219,219,219); stroke-width:1.0px;"/>
<path d="M 2232.0 466.0 L 2232.0 456.0" style="fill:none; stroke:rgb(219,219,219); stroke-width:1.0px;"/>
<path d="M 2231.0 466.0 L 2231.0 456.0" style="fill:none; stroke:rgb(169,169,169); stroke-width:1.0px;"/>
<path d="M 2231.0 465.0 L 2231.0 455.0" style="fill:none; stroke:rgb(169,169,169); stroke-width:1.0px;"/>
<path d="M 2230.0 465.0 L 2230.0 455.0" style="fill:none; stroke:rgb(0,0,0); stroke-width:1.0px;"/>
<rect x="2523.5px" y="797.5px" width="57.0px" height="31.0px" rx="11.0px" ry="11.0px" style="fill:rgb(255,255,255); stroke:rgb(255,255,255); stroke-width:1.0px;"/>
<text transform="translate(2510.0,806.0), rotate(-0.0)" x="0px" y="0px" textLength="82.0px"
 style="font-family:Arial; font-size:10.0px; fill:rgb(0,0,0); stroke:none; baseline-shift:-10.0px; ">
   Coffee_Selection
</text>
<rect x="2447.5px" y="892.5px" width="57.0px" height="30.0px" rx="11.0px" ry="11.0px" style="fill:rgb(255,255,255); stroke:rgb(255,255,255); stroke-width:1.0px;"/>
<text transform="translate(2455.0,901.0), rotate(-0.0)" x="0px" y="0px" textLength="42.0px"
 style="font-family:Arial; font-size:10.0px; fill:rgb(0,0,0); stroke:none; baseline-shift:-10.0px; ">
   Facilities
</text>
<rect x="2296.5px" y="892.5px" width="57.0px" height="30.0px" rx="11.0px" ry="11.0px" style="fill:rgb(255,255,255); stroke:rgb(255,255,255); stroke-width:1.0px;"/>
<text transform="translate(2285.0,901.0), rotate(-0.0)" x="0px" y="0px" textLength="80.0px"
 style="font-family:Arial; font-size:10.0px; fill:rgb(0,0,0); stroke:none; baseline-shift:-10.0px; ">
   Feelgood_Factor
</text>
<rect x="2372.5px" y="892.5px" width="56.0px" height="30.0px" rx="11.0px" ry="11.0px" style="fill:rgb(255,255,255); stroke:rgb(255,255,255); stroke-width:1.0px;"/>
<text transform="translate(2383.0,901.0), rotate(-0.0)" x="0px" y="0px" textLength="35.0px"
 style="font-family:Arial; font-size:10.0px; fill:rgb(0,0,0); stroke:none; baseline-shift:-10.0px; ">
   Service
</text>
<path d="M 2483.0 815.0 L 2507.0 815.0" style="fill:none; stroke:rgb(219,219,219); stroke-width:1.0px;"/>
<path d="M 2483.0 814.0 L 2507.0 814.0" style="fill:none; stroke:rgb(219,219,219); stroke-width:1.0px;"/>
<path d="M 2482.0 814.0 L 2506.0 814.0" style="fill:none; stroke:rgb(169,169,169); stroke-width:1.0px;"/>
<path d="M 2482.0 813.0 L 2506.0 813.0" style="fill:none; stroke:rgb(169,169,169); stroke-width:1.0px;"/>
<path d="M 2481.0 813.0 L 2505.0 813.0" style="fill:none; stroke:rgb(0,0,0); stroke-width:1.0px;"/>
<path d="M 2437.0 858.0 L 2461.0 888.0" style="fill:none; stroke:rgb(219,219,219); stroke-width:1.0px;"/>
<path d="M 2437.0 857.0 L 2461.0 887.0" style="fill:none; stroke:rgb(219,219,219); stroke-width:1.0px;"/>
<path d="M 2436.0 857.0 L 2460.0 887.0" style="fill:none; stroke:rgb(169,169,169); stroke-width:1.0px;"/>
<path d="M 2436.0 856.0 L 2460.0 886.0" style="fill:none; stroke:rgb(169,169,169); stroke-width:1.0px;"/>
<path d="M 2435.0 856.0 L 2459.0 886.0" style="fill:none; stroke:rgb(0,0,0); stroke-width:1.0px;"/>
<path d="M 2367.0 858.0 L 2343.0 888.0" style="fill:none; stroke:rgb(219,219,219); stroke-width:1.0px;"/>
<path d="M 2367.0 857.0 L 2343.0 887.0" style="fill:none; stroke:rgb(219,219,219); stroke-width:1.0px;"/>
<path d="M 2366.0 857.0 L 2342.0 887.0" style="fill:none; stroke:rgb(169,169,169); stroke-width:1.0px;"/>
<path d="M 2366.0 856.0 L 2342.0 886.0" style="fill:none; stroke:rgb(169,169,169); stroke-width:1.0px;"/>
<path d="M 2365.0 856.0 L 2341.0 886.0" style="fill:none; stroke:rgb(0,0,0); stroke-width:1.0px;"/>
<path d="M 2402.0 858.0 L 2402.0 888.0" style="fill:none; stroke:rgb(219,219,219); stroke-width:1.0px;"/>
<path d="M 2402.0 857.0 L 2402.0 887.0" style="fill:none; stroke:rgb(219,219,219); stroke-width:1.0px;"/>
<path d="M 2401.0 857.0 L 2401.0 887.0" style="fill:none; stroke:rgb(169,169,169); stroke-width:1.0px;"/>
<path d="M 2401.0 856.0 L 2401.0 886.0" style="fill:none; stroke:rgb(169,169,169); stroke-width:1.0px;"/>
<path d="M 2400.0 856.0 L 2400.0 886.0" style="fill:none; stroke:rgb(0,0,0); stroke-width:1.0px;"/>
<rect x="2031.5px" y="892.5px" width="57.0px" height="30.0px" rx="11.0px" ry="11.0px" style="fill:rgb(255,255,255); stroke:rgb(255,255,255); stroke-width:1.0px;"/>
<text transform="translate(2047.0,901.0), rotate(-0.0)" x="0px" y="0px" textLength="25.0px"
 style="font-family:Arial; font-size:10.0px; fill:rgb(0,0,0); stroke:none; baseline-shift:-10.0px; ">
   Total
</text>
<rect x="2202.5px" y="892.5px" width="56.0px" height="30.0px" rx="11.0px" ry="11.0px" style="fill:rgb(255,255,255); stroke:rgb(255,255,255); stroke-width:1.0px;"/>
<text transform="translate(2217.0,901.0), rotate(-0.0)" x="0px" y="0px" textLength="25.0px"
 style="font-family:Arial; font-size:10.0px; fill:rgb(0,0,0); stroke:none; baseline-shift:-10.0px; ">
   Total
</text>
<path d="M 2062.0 858.0 L 2062.0 888.0" style="fill:none; stroke:rgb(219,219,219); stroke-width:1.0px;"/>
<path d="M 2062.0 857.0 L 2062.0 887.0" style="fill:none; stroke:rgb(219,219,219); stroke-width:1.0px;"/>
<path d="M 2061.0 857.0 L 2061.0 887.0" style="fill:none; stroke:rgb(169,169,169); stroke-width:1.0px;"/>
<path d="M 2061.0 856.0 L 2061.0 886.0" style="fill:none; stroke:rgb(169,169,169); stroke-width:1.0px;"/>
<path d="M 2060.0 856.0 L 2060.0 886.0" style="fill:none; stroke:rgb(0,0,0); stroke-width:1.0px;"/>
<path d="M 2232.0 858.0 L 2232.0 888.0" style="fill:none; stroke:rgb(219,219,219); stroke-width:1.0px;"/>
<path d="M 2232.0 857.0 L 2232.0 887.0" style="fill:none; stroke:rgb(219,219,219); stroke-width:1.0px;"/>
<path d="M 2231.0 857.0 L 2231.0 887.0" style="fill:none; stroke:rgb(169,169,169); stroke-width:1.0px;"/>
<path d="M 2231.0 856.0 L 2231.0 886.0" style="fill:none; stroke:rgb(169,169,169); stroke-width:1.0px;"/>
<path d="M 2230.0 856.0 L 2230.0 886.0" style="fill:none; stroke:rgb(0,0,0); stroke-width:1.0px;"/>
</g>
</svg>
